<svg width="22" height="21" fill="none" xmlns="http://www.w3.org/2000/svg"><g clip-path="url(#a)" fill="#fff"><path d="M3.88 0 2.73.02c-.261.004-.428.145-.559.368-.386.662-.787 1.317-1.182 1.975a.706.706 0 0 0-.125.327l-.15 3.002C.66 6.795.61 7.899.553 9c-.08 1.599-.165 3.197-.247 4.796-.038.723-.072 1.447-.11 2.17C.132 17.21.069 18.456.002 19.7c-.014.243.062.428.27.557h21.456c.208-.129.284-.316.27-.557a677.284 677.284 0 0 1-.196-3.76c-.06-1.23-.11-2.458-.173-3.687-.091-1.776-.195-3.55-.287-5.325-.062-1.186-.124-2.372-.162-3.56-.017-.553-.136-1.051-.466-1.508a8.052 8.052 0 0 1-.677-1.126c-.2-.404-.447-.691-.852-.734H3.879zm13.574.973h1.145c.323-.036 1 .857 1.15 1.103.065.105.048.153-.081.151-.227-.003-16.877-.001-17.033-.001-.115-.02-.33.072-.394-.04-.063-.111.483-1.053.643-1.143a.101.101 0 0 1 .07-.032.578.578 0 0 1 .205-.038h14.295zm3.351 18.37c-.91-.002-1.821 0-2.732 0H1.327c-.366 0-.387.024-.354-.365.063-.737.08-1.48.118-2.22.098-1.892.198-3.785.294-5.679.059-1.169.11-2.34.167-3.51.067-1.371.14-2.743.205-4.114.01-.207.087-.29.309-.29 5.954.004 11.906.004 17.86 0 .24 0 .307.097.316.309.05 1.144.101 2.289.16 3.434.092 1.808.195 3.616.29 5.424.057 1.085.107 2.17.16 3.255.058 1.178.115 2.357.187 3.534.014.208-.08.222-.234.222z"/><path d="M7.241 7.683c0-.294-.014-.531.004-.765.015-.218-.057-.346-.251-.464-.495-.304-.693-.777-.605-1.344.082-.538.409-.897.928-1.064a1.337 1.337 0 0 1 1.61.715c.277.59.083 1.332-.474 1.672-.22.136-.292.284-.279.528.033.588-.05 1.18.057 1.767.246 1.335 1.434 2.284 2.83 2.265 1.341-.017 2.5-1.004 2.71-2.313.103-.645.027-1.296.048-1.944.005-.167-.13-.2-.232-.267-.494-.326-.707-.792-.617-1.368.082-.526.404-.883.91-1.052a1.336 1.336 0 0 1 1.62.696c.29.6.098 1.348-.473 1.692-.225.135-.273.29-.275.527-.007.698.069 1.4-.096 2.09a3.768 3.768 0 0 1-3.998 2.867c-1.605-.134-3.11-1.38-3.377-3.186-.055-.37-.024-.74-.04-1.052zm.478-2.369a.35.35 0 0 1 .225.06c.156.104.175.01.153-.113-.036-.21-.172-.32-.385-.326-.203-.007-.335.092-.39.285-.014.053-.017.129.01.168.048.07.103-.008.151-.029a.52.52 0 0 1 .236-.045zm6.932.11c.053-.278-.055-.455-.287-.486-.241-.033-.454.122-.465.342-.001.053-.03.17.088.105.234-.13.449-.07.664.04z"/></g><defs><clipPath id="a"><path fill="#fff" d="M0 0h22v20.257H0z"/></clipPath></defs></svg>