<svg width="135" height="24" viewBox="0 0 135 24" fill="none" xmlns="http://www.w3.org/2000/svg">
<g clip-path="url(#clip0_43_1699)">
<path fill-rule="evenodd" clip-rule="evenodd" d="M57.7517 0V1.83927H50.367V22.2055H46.5293V1.83927H39.126V0H57.7517ZM116.485 0H118.584L133.145 15.852V0H134.996V22.2044H134.131L118.338 4.60909V22.2818L116.488 22.3244V0H116.485ZM96.6317 13.6113H104.73L100.81 4.99309L96.6317 13.6113ZM102.128 0L112.688 22.2938H108.858L105.431 15.0185H95.9752L92.4271 22.2938H90.3923L101.194 0H102.126H102.128ZM90.7777 0H72.1531V1.83927H79.5564V22.2055H83.3908V1.83927H90.7755V0H90.7777ZM63.0319 0H66.8696V22.2055H63.0319V0Z" fill="#373435"/>
<path fill-rule="evenodd" clip-rule="evenodd" d="M23.3692 8.05091C25.4377 12.9513 22.435 20.1131 17.599 21.8236V3.20073H25.2744L27.3059 0H14.3024V22.3484V24C21.0393 23.5713 27.209 18.1887 27.209 11.3673C27.2067 10.2477 27.0604 9.13301 26.7736 8.05091H23.3692ZM12.997 0H0L2.02282 3.20073H9.7004V21.8225C4.91008 20.1295 1.78657 12.852 3.94548 8.05091H0.519315C0.232585 9.13303 0.0862179 10.2477 0.0838307 11.3673C0.0838307 18.1887 6.25355 23.5713 12.9905 24V22.3484V0H12.997Z" fill="#373435"/>
</g>
<defs>
<clipPath id="clip0_43_1699">
<rect width="135" height="24" fill="white"/>
</clipPath>
</defs>
</svg>
