<svg width="136" height="24" viewBox="0 0 136 24" fill="none" xmlns="http://www.w3.org/2000/svg">
<mask id="mask0_43_1714" style="mask-type:luminance" maskUnits="userSpaceOnUse" x="0" y="0" width="136" height="24">
<path d="M135.564 0H0V24H135.564V0Z" fill="white"/>
</mask>
<g mask="url(#mask0_43_1714)">
<path d="M67.5968 0L61.1813 15.7549L54.6679 0H50.5587L46.8387 24.0001H50.914L53.4148 7.77642L60.0514 24.0001H62.3203L68.9194 7.78358L71.4595 24.0001H75.5883L71.556 0H67.5968Z" fill="black"/>
<path d="M67.5968 0L61.1813 15.7549L54.6679 0H50.5587L46.8387 24.0001H50.914L53.4148 7.77642L60.0514 24.0001H62.3203L68.9194 7.78358L71.4595 24.0001H75.5883L71.556 0H67.5968Z" fill="black"/>
<path d="M10.1271 24L10.1359 3.22542H0.432556V0H24.302V3.22542H14.404L14.3932 24H10.1271Z" fill="black"/>
<path d="M10.1271 24L10.1359 3.22542H0.432556V0H24.302V3.22542H14.404L14.3932 24H10.1271Z" fill="black"/>
<path d="M85.4258 24L85.44 0H105.254L105.25 3.56887H89.4832L89.4797 9.96425H103.18L103.176 13.1718H89.4797L89.4742 20.5027H105.145L105.141 24H85.4258Z" fill="black"/>
<path d="M85.4258 24L85.44 0H105.254L105.25 3.56887H89.4832L89.4797 9.96425H103.18L103.176 13.1718H89.4797L89.4742 20.5027H105.145L105.141 24H85.4258Z" fill="black"/>
<path d="M32.2617 24L32.2724 0H36.4297L36.3904 24H32.2617Z" fill="black"/>
<path d="M32.2617 24L32.2724 0H36.4297L36.3904 24H32.2617Z" fill="black"/>
<path d="M112.446 24L121.48 11.3668L113.332 0H118.553L124.229 8.03219L129.902 0H135.136L126.935 11.3686L135.996 24H130.773L124.226 13.9499L117.671 24H112.446Z" fill="black"/>
<path d="M112.446 24L121.48 11.3668L113.332 0H118.553L124.229 8.03219L129.902 0H135.136L126.935 11.3686L135.996 24H130.773L124.226 13.9499L117.671 24H112.446Z" fill="black"/>
</g>
</svg>
