<svg width="49" height="35" fill="none" xmlns="http://www.w3.org/2000/svg"><path d="M49 28.422c-.408.802-1.065 1.113-1.956 1.085-1.179-.037-2.358.002-3.538-.015-.334-.005-.512.096-.637.423-.938 2.447-2.736 3.842-5.323 4.124-2.574.28-5.261-1.236-6.289-3.89-.194-.501-.426-.67-.962-.664a475.6 475.6 0 0 1-7.841.006c-.377-.003-.56.109-.694.475-.904 2.472-3.248 4.112-5.837 4.113-2.562.002-4.902-1.621-5.814-4.07-.148-.402-.346-.529-.76-.52-1.115.027-2.232.02-3.347.004-.72-.01-1.253-.356-1.53-1.025-.253-.606-.071-1.31.415-1.748.35-.315.773-.426 1.235-.425 1.068.004 2.136-.018 3.203.01.42.01.61-.127.75-.53.879-2.534 3.307-4.206 5.986-4.16 2.542.046 4.851 1.705 5.709 4.146.15.425.357.547.79.544 2.614-.02 5.229-.02 7.842 0 .417.002.612-.124.757-.524.896-2.46 3.127-4.09 5.65-4.165a6.234 6.234 0 0 1 6.07 4.18c.136.384.308.528.71.506.604-.032 1.212-.018 1.817-.006.301.006.433-.104.432-.415-.006-2.407-.004-4.814-.002-7.22a.822.822 0 0 0-.192-.525c-.6-.767-1.201-1.53-1.781-2.31-.206-.276-.466-.285-.76-.285-3.697.003-7.395.003-11.092.002-1.353 0-1.959-.6-1.96-1.948-.002-3.252 0-6.503-.001-9.755 0-.635-.002-.637-.633-.637-7.713 0-15.428-.001-23.142.002-.42 0-.829-.017-1.19-.268-.532-.368-.786-.87-.702-1.515C4.469.761 4.845.319 5.472.094c.292-.103.597-.094.9-.094l24.864.001c.27 0 .54-.002.806.071.716.197 1.172.746 1.204 1.484.014.334.026.67 0 1.004-.032.401.134.526.523.522 1.785-.014 3.572.032 5.355-.019 1.167-.034 1.9.417 2.404 1.482 1.065 2.245 2.241 4.437 3.32 6.676.656 1.358 1.433 2.622 2.396 3.781.62.748 1.223 1.51 1.755 2.325L49 28.422zM37.532 12.341c1.258 0 2.516.002 3.775-.001.505-.001.526-.031.307-.467-.868-1.737-1.745-3.47-2.608-5.21-.137-.276-.313-.398-.63-.396-1.544.013-3.09.014-4.633-.001-.372-.004-.501.11-.497.49.016 1.687.02 3.375-.003 5.063-.006.442.168.534.564.528 1.241-.018 2.483-.006 3.725-.006zM18.945 27.853a3.032 3.032 0 0 0-3.031-3.036c-1.638.005-3.005 1.37-3.023 3.015-.018 1.638 1.407 3.06 3.05 3.042 1.652-.017 3.002-1.374 3.004-3.02zm18.09-3.035c-1.663-.003-3.02 1.33-3.03 2.983-.012 1.708 1.355 3.089 3.04 3.074 1.627-.014 3.01-1.415 3-3.037-.012-1.654-1.37-3.016-3.01-3.02z" fill="#fff"/><path d="M10.666 9.518c-2.18 0-4.363.006-6.544-.004-.802-.003-1.381-.468-1.57-1.213-.17-.67.148-1.39.773-1.749.314-.18.661-.229 1.013-.229 4.22-.002 8.44-.008 12.66.003 1.268.003 2.048.87 1.81 1.956-.165.75-.77 1.23-1.598 1.232-2.18.009-4.361.004-6.544.004zM8.16 15.62c-2.07 0-4.14 0-6.21.002-.255 0-.508-.011-.757-.078-.8-.218-1.262-.888-1.185-1.726.07-.749.728-1.367 1.516-1.39.651-.02 1.305-.008 1.958-.008l11.175.001c.726 0 1.268.318 1.548.987.256.612.136 1.194-.308 1.685-.38.42-.889.529-1.433.529-2.102-.003-4.203-.002-6.305-.002zM7.608 21.662c-1.115 0-2.229.004-3.344-.001-1.024-.005-1.745-.643-1.762-1.551-.018-.906.683-1.626 1.694-1.638 2.308-.025 4.617-.024 6.927 0 .989.009 1.666.708 1.657 1.613-.01.925-.71 1.57-1.73 1.575-1.148.008-2.294.002-3.442.002z" fill="#fff"/></svg>