<svg width="35" height="44" fill="none" xmlns="http://www.w3.org/2000/svg"><g clip-path="url(#a)" fill="#fff"><path d="M10.812 44c-.215-.161-.32-.396-.432-.63-.26-.541-.516-1.085-.794-1.617-.603-1.153-1.766-1.677-3.034-1.364-.61.15-1.213.333-1.818.504-.313.088-.623.157-.87-.14-.23-.278-.127-.559.002-.844.867-1.915 1.739-3.83 2.59-5.752.166-.375.279-.306.525-.07 1.767 1.69 3.8 2.182 6.116 1.3.637-.244 1.171-.654 1.684-1.092.297-.253.625-.455.984-.602.097-.04.221-.137.312-.018.063.084-.014.19-.055.28-.494 1.096-.985 2.192-1.48 3.286l-2.74 6.061c-.117.26-.215.535-.475.697l-.515.001zM23.176 44c-.204-.128-.31-.329-.405-.54-1.412-3.13-2.826-6.257-4.235-9.388-.059-.131-.227-.29-.075-.42.106-.092.266.04.396.092.458.188.821.516 1.2.82 2.27 1.815 5.376 1.644 7.412-.411.397-.4.392-.398.627.125.839 1.865 1.681 3.729 2.525 5.593.134.294.265.587.02.881-.26.313-.585.219-.91.127-.592-.167-1.18-.344-1.778-.491-1.268-.312-2.431.21-3.033 1.364-.298.57-.571 1.154-.849 1.735a1.393 1.393 0 0 1-.377.513h-.518z"/><path d="M7.627 29.75c.029-2.714-1.707-4.92-4.378-5.492-1.141-.244-2.116-.67-2.736-1.72-.912-1.54-.593-3.457.834-4.541 1.104-.84 1.965-1.826 2.346-3.185.397-1.414.27-2.78-.405-4.08-.44-.85-.711-1.708-.487-2.677.441-1.895 2.263-3.083 4.163-2.653 1.058.24 2.104.406 3.178.128 1.676-.436 2.91-1.418 3.688-2.966.212-.42.386-.86.675-1.242 1.487-1.964 4.69-1.694 5.804.503.416.818.79 1.65 1.485 2.29 1.476 1.357 3.19 1.876 5.147 1.4 1.162-.283 2.257-.32 3.289.385 1.443.986 1.963 2.833 1.185 4.397-.439.882-.808 1.777-.823 2.771-.029 1.93.706 3.515 2.262 4.675.893.665 1.482 1.476 1.62 2.61.203 1.686-.92 3.364-2.59 3.745-.984.225-1.948.472-2.766 1.1-1.511 1.156-2.292 2.676-2.24 4.59.027 1.004-.146 1.93-.802 2.731-1.17 1.43-3.325 1.715-4.777.576-.817-.641-1.634-1.263-2.666-1.505-1.85-.434-3.516-.051-4.982 1.16-.558.462-1.138.855-1.873.988a3.518 3.518 0 0 1-4.151-3.384c-.004-.203 0-.403 0-.604zm20.859-12.18C28.478 11.355 23.44 6.323 17.23 6.333c-6.186.008-11.192 5.04-11.218 11.238-.024 6.026 4.832 11.252 11.238 11.253 6.4 0 11.276-5.222 11.235-11.252z"/><path d="M8.032 17.564c.01-5.104 4.133-9.23 9.227-9.22 5.196.013 9.244 4.29 9.225 9.277-.018 4.806-3.893 9.217-9.26 9.198-5.413-.02-9.264-4.488-9.192-9.255zm14.276-1.752c-.003-.463-.21-.74-.642-.906-.476-.183-.829.053-1.181.31-1.433 1.047-2.87 2.087-4.294 3.143-.257.19-.401.186-.578-.09-.26-.41-.55-.803-.838-1.194-.353-.477-1.007-.614-1.44-.316-.454.311-.559.93-.209 1.445.53.782 1.07 1.556 1.627 2.317.405.554.985.645 1.539.243 1.865-1.35 3.72-2.714 5.582-4.07a.987.987 0 0 0 .434-.882z"/></g><defs><clipPath id="a"><path fill="#fff" d="M0 0h34.498v44H0z"/></clipPath></defs></svg>