<svg width="74" height="60" viewBox="0 0 74 60" fill="none" xmlns="http://www.w3.org/2000/svg">
<path d="M59.4971 30.519C67.7112 30.519 73.2465 36.448 73.2465 45.2329C73.2465 53.1382 66.8845 59.7241 58.2676 59.7241C48.8293 59.7241 41.8552 51.8188 41.8552 39.7437C41.8552 12.2977 61.1399 1.31936 73.2465 0V12.0751C65.0377 13.6117 55.8086 22.1739 55.3953 31.6212C55.8086 31.404 57.4462 30.519 59.4971 30.519ZM17.6472 30.519C25.8508 30.519 31.3914 36.448 31.3914 45.2329C31.3914 53.1382 25.0294 59.7241 16.4125 59.7241C6.97412 59.7241 0 51.8188 0 39.7437C0 12.2977 19.2848 1.31936 31.3914 0V12.0751C23.1825 13.6117 13.9535 22.1739 13.5401 31.6212C13.9535 31.404 15.591 30.519 17.6472 30.519V30.519Z" fill="#01244E" fill-opacity="0.05"/>
</svg>
