<svg width="131" height="88" fill="none" xmlns="http://www.w3.org/2000/svg"><g filter="url(#a)" fill="#FFCE64"><path d="M43.968 22.114a.38.38 0 0 1 .724 0l.75 2.306a.38.38 0 0 0 .362.263h2.424a.38.38 0 0 1 .224.689l-1.962 1.425a.38.38 0 0 0-.138.426l.75 2.305a.38.38 0 0 1-.587.426l-1.96-1.425a.38.38 0 0 0-.449 0l-1.96 1.425a.38.38 0 0 1-.587-.426l.75-2.305a.38.38 0 0 0-.139-.426l-1.961-1.425a.38.38 0 0 1 .224-.689h2.424a.38.38 0 0 0 .362-.263l.75-2.306zM54.629 22.114a.38.38 0 0 1 .724 0l.75 2.306a.38.38 0 0 0 .361.263h2.425a.38.38 0 0 1 .223.689l-1.96 1.425a.38.38 0 0 0-.14.426l.75 2.305a.38.38 0 0 1-.586.426l-1.961-1.425a.38.38 0 0 0-.448 0l-1.961 1.425a.38.38 0 0 1-.586-.426l.75-2.305a.38.38 0 0 0-.14-.426l-1.96-1.425a.38.38 0 0 1 .223-.689h2.425a.38.38 0 0 0 .362-.263l.749-2.306zM65.29 22.114a.38.38 0 0 1 .724 0l.749 2.306a.38.38 0 0 0 .362.263h2.424a.38.38 0 0 1 .224.689l-1.961 1.425a.38.38 0 0 0-.138.426l.749 2.305a.38.38 0 0 1-.586.426l-1.962-1.425a.38.38 0 0 0-.447 0l-1.961 1.425a.38.38 0 0 1-.586-.426l.749-2.305a.38.38 0 0 0-.139-.426l-1.96-1.425a.38.38 0 0 1 .223-.689h2.424a.38.38 0 0 0 .362-.263l.75-2.306zM75.95 22.114a.38.38 0 0 1 .724 0l.75 2.306a.38.38 0 0 0 .362.263h2.424a.38.38 0 0 1 .224.689l-1.962 1.425a.38.38 0 0 0-.138.426l.75 2.305a.38.38 0 0 1-.587.426l-1.96-1.425a.38.38 0 0 0-.448 0l-1.962 1.425a.38.38 0 0 1-.586-.426l.75-2.305a.38.38 0 0 0-.139-.426l-1.961-1.425a.38.38 0 0 1 .224-.689h2.424a.38.38 0 0 0 .362-.263l.75-2.306zM86.61 22.114a.38.38 0 0 1 .725 0l.75 2.306a.38.38 0 0 0 .361.263h2.425a.38.38 0 0 1 .224.689l-1.962 1.425a.38.38 0 0 0-.138.426l.749 2.305a.38.38 0 0 1-.586.426l-1.961-1.425a.38.38 0 0 0-.448 0l-1.961 1.425a.38.38 0 0 1-.586-.426l.75-2.305a.38.38 0 0 0-.14-.426l-1.96-1.425a.38.38 0 0 1 .223-.689H85.5a.38.38 0 0 0 .362-.263l.749-2.306z"/></g><defs><filter id="a" x=".926" y=".821" width="129.451" height="86.808" filterUnits="userSpaceOnUse" color-interpolation-filters="sRGB"><feFlood flood-opacity="0" result="BackgroundImageFix"/><feColorMatrix in="SourceAlpha" values="0 0 0 0 0 0 0 0 0 0 0 0 0 0 0 0 0 0 127 0" result="hardAlpha"/><feOffset dy="17.895"/><feGaussianBlur stdDeviation="19.037"/><feComposite in2="hardAlpha" operator="out"/><feColorMatrix values="0 0 0 0 0.0833333 0 0 0 0 0.0833333 0 0 0 0 0.0833333 0 0 0 0.15 0"/><feBlend in2="BackgroundImageFix" result="effect1_dropShadow_34_257"/><feBlend in="SourceGraphic" in2="effect1_dropShadow_34_257" result="shape"/></filter></defs></svg>