<svg width="29" height="29" fill="none" xmlns="http://www.w3.org/2000/svg"><g clip-path="url(#a)" fill="#fff"><path d="M0 14.56V5.656c.137-.063.277-.122.412-.19C3.94 3.678 7.469 1.891 10.992.095c.235-.12.421-.13.659-.01 3.567 1.818 7.136 3.628 10.709 5.432.233.118.326.256.324.527-.01 2.345-.003 4.69-.011 7.035-.001.267.076.382.344.447 2.156.518 3.808 1.749 4.952 3.673.57.957.876 2.006 1.031 3.106v1.723c-.03.17-.063.338-.09.508-.569 3.485-3.583 6.257-7.073 6.45-2.563.141-4.714-.776-6.412-2.74-.164-.19-.27-.19-.463-.057-1.11.762-2.232 1.506-3.34 2.27-.212.146-.364.152-.579.005-1.58-1.082-3.173-2.145-4.756-3.224-2.85-1.943-4.774-4.583-5.76-7.923C.26 16.415.12 15.49 0 14.56zm4.056 3.997c0-.284.017-.569-.003-.851-.076-1.087.596-2.17 1.89-2.471.909-.212 1.81-.458 2.716-.688.39-.1.402-.123.383-.526a.378.378 0 0 0-.168-.311c-.168-.124-.326-.262-.5-.377-.186-.124-.247-.282-.244-.506.011-.833.005-1.666.004-2.498-.001-.7.06-.629-.593-.63-.029 0-.057-.003-.085-.002-.15.006-.213-.06-.229-.218-.139-1.48.701-2.75 2.118-3.157 1.16-.334 2.32-.389 3.468.07.093.037.203.039.305.042.859.03 1.402.59 1.403 1.463.002 1.474-.032 2.949.016 4.421.02.615-.12 1.054-.67 1.329-.041.02-.075.057-.114.085-.21.156-.134.382-.128.583.006.178.175.182.296.213.704.183 1.41.35 2.111.542.227.063.392.015.571-.127a7.297 7.297 0 0 1 3-1.422c.247-.055.317-.168.316-.41-.008-1.78-.009-3.56.002-5.34 0-.249-.089-.377-.301-.484a2241.799 2241.799 0 0 1-8.025-4.07.521.521 0 0 0-.528 0 1846.965 1846.965 0 0 1-8.025 4.066c-.228.115-.308.254-.307.51.01 1.81-.002 3.618.009 5.426.006 1.114.14 2.214.453 3.286.207.713.465 1.406.859 2.052zm17.257-4.261c-3.727.04-6.775 2.969-6.777 6.871-.001 3.838 2.994 6.853 6.756 6.852 3.78 0 6.775-3.03 6.763-6.876-.01-3.869-3.023-6.788-6.742-6.848zM6.322 21.657v-.369c0-.776-.004-1.55 0-2.326.005-.64-.08-.576.58-.579.367-.001.369.003.37.391 0 1.12.007 2.24-.006 3.36-.002.26.08.425.292.568 1.188.796 2.373 1.6 3.554 2.408.173.118.302.09.46-.018.687-.472 1.375-.943 2.074-1.398.2-.13.254-.259.186-.493a7.373 7.373 0 0 1-.237-2.758c.153-1.604.734-3.037 1.759-4.277.111-.136.14-.223-.071-.273a53.592 53.592 0 0 1-1.427-.363c-.178-.049-.26.01-.305.186-.211.845-.728 1.41-1.54 1.693-.163.057-.214.16-.21.324.007.315.007.632.001.947-.015.75.14.66-.69.67-.2.002-.264-.084-.26-.275.007-.44-.006-.881.004-1.321.005-.192-.06-.294-.243-.358-.79-.28-1.293-.839-1.503-1.658-.054-.211-.146-.253-.344-.2-.895.235-1.794.451-2.687.688-.68.181-1.056.662-1.069 1.372-.013.794-.003 1.59-.004 2.383 0 .097.004.193.063.275.355.484.746.934 1.253 1.4zM1.79 10.655c0-1.15.011-2.298-.007-3.447-.004-.298.103-.44.355-.566 2.95-1.486 5.895-2.98 8.837-4.481.255-.13.456-.13.71 0 2.907 1.485 5.818 2.964 8.736 4.427.335.168.459.353.454.737-.021 1.876-.01 3.753-.008 5.63 0 .11-.048.262.063.321.216.117.464.079.689.029.163-.037.107-.224.107-.35.003-2.098-.002-4.194.007-6.291.001-.255-.077-.396-.305-.511-3.27-1.65-6.537-3.308-9.801-4.97a.58.58 0 0 0-.585-.005A3289.944 3289.944 0 0 1 1.215 6.16c-.218.11-.293.247-.292.49.008 2.135.003 4.27.006 6.405 0 .747.043 1.492.158 2.23.559 3.583 2.249 6.495 5.107 8.67 1.592 1.212 3.304 2.254 4.95 3.392.156.108.27.065.407-.029.886-.603 1.775-1.2 2.662-1.8.57-.386.453-.255.202-.808-.096-.213-.188-.234-.38-.102-.803.555-1.621 1.088-2.42 1.648-.218.152-.371.137-.58-.006-.944-.652-1.897-1.29-2.848-1.932-.81-.546-1.633-1.074-2.35-1.747-2.555-2.402-3.928-5.36-4.04-8.9-.033-1.005-.005-2.011-.007-3.016zm7.295.538c0 .392.008.785-.004 1.176a.47.47 0 0 0 .217.432c.375.273.742.557 1.108.842.125.097.257.15.416.146.34-.005.679-.004 1.018 0a.603.603 0 0 0 .393-.133c.382-.295.765-.59 1.154-.876.136-.1.19-.22.188-.388-.008-.468-.005-.937-.002-1.405a.547.547 0 0 0-.102-.35 85.11 85.11 0 0 1-.914-1.24c-.094-.13-.197-.158-.34-.094-.275.125-.564.209-.857.284-.632.162-1.275.098-1.913.11-.353.007-.36.011-.362.377-.002.374 0 .747 0 1.12zm4.43-2.147c.019-.007.036-.015.054-.023 0-.372.008-.744-.002-1.115-.007-.27-.143-.481-.417-.49-.378-.013-.72-.113-1.082-.219-.943-.276-1.885-.162-2.79.218-.468.197-.786.545-.967 1.027-.08.214-.023.294.207.29.574-.01 1.149.008 1.723-.006a4.192 4.192 0 0 0 1.647-.353c.588-.265 1.022-.142 1.407.378.073.099.147.196.22.293zm-.85 5.966c-.004-.205.074-.502-.31-.271-.05.03-.13.012-.195.012-.557 0-1.113.002-1.67 0-.094 0-.194.016-.277-.04-.219-.147-.229-.009-.223.162.004.105-.003.21.004.316.047.673.459 1.186 1.042 1.304.919.183 1.623-.457 1.629-1.483z"/><path d="M29 8.758c-.094.008-.187.021-.281.021-1.605.001-3.21-.005-4.814.007-.285.002-.38-.083-.37-.374.025-.677-.063-.594.597-.596 1.491-.004 2.983-.002 4.474 0 .131 0 .263.015.394.024v.918zM25.389 9.653c.509 0 1.018.007 1.527-.003.219-.005.3.072.296.299-.015.785.077.662-.634.668-.905.007-1.81-.006-2.715.005-.246.003-.333-.075-.326-.328.02-.745-.076-.63.636-.64.405-.006.81-.001 1.216-.001zM24.447 12.457c-.132 0-.264.01-.395-.003-.162-.015-.399.09-.47-.081-.1-.242-.054-.526-.017-.791.008-.053.059-.078.106-.078.528-.003 1.055-.004 1.582-.003.09 0 .135.063.136.15.003.211.004.42.003.631-.001.141-.095.172-.21.172h-.734v.003zM19.638 26.022c-.086-.005-.134-.068-.187-.121-1.28-1.299-2.56-2.599-3.844-3.895-.133-.133-.158-.232-.014-.377.759-.76 1.512-1.524 2.263-2.291.133-.137.23-.115.352.012.395.411.807.806 1.195 1.223.168.182.266.191.446.006 1.326-1.36 2.663-2.71 3.998-4.064.268-.271.27-.272.53-.01.707.717 1.41 1.439 2.124 2.148.173.172.184.282.004.463-2.22 2.24-4.433 4.488-6.648 6.734-.066.066-.123.146-.22.172zm-.017-1.393c.085-.002.134-.064.186-.118 1.795-1.819 3.588-3.639 5.386-5.456.122-.123.125-.207 0-.328-.266-.257-.522-.526-.783-.79-.294-.297-.294-.297-.593.006-1.314 1.332-2.631 2.661-3.938 4.002-.194.198-.313.195-.497-.005-.38-.412-.787-.799-1.174-1.204-.123-.13-.211-.154-.345-.012-.299.32-.606.63-.92.934-.13.126-.107.211.01.329.832.835 1.657 1.675 2.485 2.513.053.054.101.116.183.129z"/></g><defs><clipPath id="a"><path fill="#fff" d="M0 0h29v29H0z"/></clipPath></defs></svg>