<svg width="112" height="76" fill="none" xmlns="http://www.w3.org/2000/svg"><path d="M15.72 34.42h-.82c-.04-.573-.133-1.053-.28-1.44-.147-.387-.36-.687-.64-.9-.267-.227-.607-.387-1.02-.48a6.805 6.805 0 0 0-1.48-.14c-.493 0-.893.013-1.2.04-.293.013-.52.047-.68.1-.16.053-.267.12-.32.2a.546.546 0 0 0-.06.28v10.7c0 .427.027.793.08 1.1.067.307.187.56.36.76.187.187.447.333.78.44.347.093.8.147 1.36.16V46H4.24v-.76c.56-.013 1.013-.067 1.36-.16.347-.107.607-.253.78-.44.187-.2.307-.453.36-.76.067-.307.1-.673.1-1.1v-10.7a.438.438 0 0 0-.08-.28c-.04-.08-.133-.147-.28-.2-.133-.053-.327-.087-.58-.1-.253-.027-.593-.04-1.02-.04-.52 0-1.007.02-1.46.06-.44.04-.827.16-1.16.36-.32.187-.58.48-.78.88-.2.4-.307.953-.32 1.66H.42V30.6h15.1l.2 3.82zm4.615-1.34a6.514 6.514 0 0 0-.56-.84 2.58 2.58 0 0 0-.54-.54 1.343 1.343 0 0 0-.56-.26c-.2-.053-.44-.08-.72-.08v-.76h6.3v.76c-.667 0-1.14.053-1.42.16-.267.093-.4.267-.4.52 0 .28.153.68.46 1.2l3.1 5.3h.08l2.26-3.8c.426-.72.726-1.287.9-1.7.186-.413.28-.747.28-1s-.1-.427-.3-.52c-.187-.107-.52-.16-1-.16v-.76h4.58v.76c-.28 0-.534.04-.76.12-.214.08-.44.24-.68.48-.24.24-.507.573-.8 1-.28.427-.627.987-1.04 1.68l-3.08 5.2v2.38c0 .653.02 1.18.06 1.58.053.387.153.687.3.9.16.213.38.36.66.44.293.067.68.1 1.16.1V46h-6.48v-.76c.48 0 .86-.033 1.14-.1.293-.08.513-.22.66-.42.16-.213.266-.507.32-.88.053-.373.08-.867.08-1.48v-2.44l-4-6.84zm46.293-2.68c1.173 0 2.267.207 3.28.62a8.245 8.245 0 0 1 2.64 1.7 7.893 7.893 0 0 1 1.76 2.54c.427.973.64 2.027.64 3.16 0 1.08-.22 2.093-.66 3.04a7.786 7.786 0 0 1-1.76 2.48 8.623 8.623 0 0 1-2.64 1.66c-1.013.4-2.1.6-3.26.6-1.16 0-2.247-.2-3.26-.6a8.62 8.62 0 0 1-2.64-1.66 8.056 8.056 0 0 1-1.78-2.48 7.312 7.312 0 0 1-.64-3.04c0-1.133.213-2.187.64-3.16a7.89 7.89 0 0 1 1.76-2.54 8.243 8.243 0 0 1 2.64-1.7 8.601 8.601 0 0 1 3.28-.62zm0 14.7c.88 0 1.667-.153 2.36-.46a4.933 4.933 0 0 0 1.8-1.32c.507-.573.893-1.267 1.16-2.08.267-.827.4-1.747.4-2.76 0-1.067-.133-2.027-.4-2.88-.267-.867-.647-1.6-1.14-2.2a4.85 4.85 0 0 0-1.8-1.4c-.707-.333-1.5-.5-2.38-.5-.88 0-1.673.167-2.38.5a4.85 4.85 0 0 0-1.8 1.4c-.493.6-.873 1.333-1.14 2.2-.267.853-.4 1.813-.4 2.88 0 1.013.133 1.933.4 2.76.267.813.647 1.507 1.14 2.08a4.932 4.932 0 0 0 1.8 1.32c.707.307 1.5.46 2.38.46zM91 34.46c0 1.067-.32 1.953-.96 2.66-.64.707-1.66 1.18-3.06 1.42l4.42 5.32c.36.44.753.76 1.18.96.44.187.96.327 1.56.42V46h-3.86l-4.9-6.28a3.351 3.351 0 0 0-.5-.54 1.524 1.524 0 0 0-.48-.3 1.484 1.484 0 0 0-.58-.14 6.421 6.421 0 0 0-.78-.04v4.16c0 .493.026.9.08 1.22.066.307.193.547.38.72.2.173.48.293.84.36.373.053.86.08 1.46.08V46h-7.06v-.76c.467-.013.84-.053 1.12-.12.293-.067.52-.18.68-.34.16-.16.266-.387.32-.68.053-.293.08-.673.08-1.14v-9.32c0-.467-.027-.84-.08-1.12-.04-.293-.133-.52-.28-.68-.133-.173-.334-.287-.6-.34a5.957 5.957 0 0 0-1.04-.14v-.76h6.28c1.84 0 3.26.34 4.26 1.02 1.013.68 1.52 1.627 1.52 2.84zm-7.96 3.24h1.42c1.333 0 2.32-.24 2.96-.72.653-.493.98-1.3.98-2.42 0-1.08-.26-1.853-.78-2.32-.507-.467-1.307-.7-2.4-.7h-1.84c-.227 0-.34.113-.34.34v5.82zm22.322 2.72h-5.34c-.227.547-.42 1.033-.58 1.46-.16.413-.294.773-.4 1.08a7.51 7.51 0 0 0-.2.78 2.95 2.95 0 0 0-.06.52c0 .373.12.633.36.78.24.133.64.2 1.2.2V46h-4.86v-.76c.306-.04.566-.093.78-.16.226-.067.42-.16.58-.28.173-.12.32-.273.44-.46.133-.2.26-.44.38-.72l5.2-13.02h.86l4.54 11.28c.306.747.573 1.347.8 1.8.226.44.446.773.66 1 .213.227.44.373.68.44.253.067.553.1.9.1V46h-6.52v-.78c.706 0 1.193-.067 1.46-.2.266-.133.4-.353.4-.66 0-.133-.007-.253-.02-.36a2.216 2.216 0 0 0-.08-.38 2.441 2.441 0 0 0-.14-.44 7.428 7.428 0 0 0-.22-.6l-.82-2.16zm-4.94-1h4.56l-2.22-5.9-2.34 5.9z" fill="url(#a)"/><path d="M46.56 27.49c1.063-.015 2.13.057 3.187-.019 1.13-.08 1.617.414 1.905 1.479 1.094 4.02 2.27 8.017 3.415 12.022.888 3.11 1.772 6.22 2.722 9.556-.763-.283-4.31-6.948-5.915-9.878a1489.138 1489.138 0 0 1-6.288-11.628c-.722-1.344-.601-1.51.974-1.531z" fill="url(#b)"/><path d="M43.937 27.028c-1.063-.016-2.13.057-3.188-.02-1.129-.08-1.616.415-1.904 1.479-1.094 4.02-2.27 8.016-3.415 12.02-.888 3.11-1.772 6.219-2.722 9.555.763-.283 4.31-6.947 5.915-9.877 2.115-3.866 4.208-7.743 6.287-11.626.723-1.344.602-1.51-.973-1.531z" fill="url(#c)"/><path d="M55.793 76h-.38a.86.86 0 0 1-.858-.86v-4.606a.86.86 0 0 1 .858-.86h.38a.86.86 0 0 1 .857.86v4.606c0 .475-.383.86-.857.86z" fill="url(#d)"/><path d="m73.457 70.407-.331.188a.854.854 0 0 1-1.168-.322l-2.27-4.004a.86.86 0 0 1 .32-1.171l.332-.189a.854.854 0 0 1 1.168.323l2.27 4.003a.862.862 0 0 1-.321 1.172z" fill="url(#e)"/><path d="m86.839 57.412-.194.329a.855.855 0 0 1-1.174.3l-3.948-2.351a.86.86 0 0 1-.3-1.178l.195-.33a.855.855 0 0 1 1.174-.3l3.948 2.352a.86.86 0 0 1 .299 1.178z" fill="url(#f)"/><path d="m86.1 15.402.214.316a.86.86 0 0 1-.23 1.194l-3.806 2.578a.855.855 0 0 1-1.19-.231l-.213-.317a.86.86 0 0 1 .23-1.193l3.805-2.58a.858.858 0 0 1 1.19.233z" fill="url(#g)"/><path d="m73.162 4.353.323.201c.403.25.527.779.279 1.183l-2.415 3.917a.856.856 0 0 1-1.18.28l-.323-.202a.862.862 0 0 1-.278-1.183l2.415-3.917a.855.855 0 0 1 1.18-.28z" fill="url(#h)"/><path d="M55.1 0h.38a.86.86 0 0 1 .859.86v4.606a.86.86 0 0 1-.858.86h-.38a.86.86 0 0 1-.858-.86V.86c0-.475.383-.86.858-.86z" fill="url(#i)"/><path d="m37.642 4.35.337-.177a.857.857 0 0 1 1.157.364l2.122 4.083c.22.421.056.94-.362 1.16l-.338.177a.857.857 0 0 1-1.156-.364L37.279 5.51a.86.86 0 0 1 .363-1.16z" fill="url(#j)"/><path d="m24.885 15.777.205-.32a.855.855 0 0 1 1.184-.258l3.859 2.495a.86.86 0 0 1 .256 1.188l-.205.32A.855.855 0 0 1 29 19.46l-3.859-2.495a.86.86 0 0 1-.256-1.188z" fill="url(#k)"/><path d="m24.818 57.975-.213-.316a.86.86 0 0 1 .23-1.194l3.805-2.58a.855.855 0 0 1 1.19.232l.214.316a.86.86 0 0 1-.231 1.194l-3.805 2.58a.857.857 0 0 1-1.19-.232z" fill="url(#l)"/><path d="m37.868 70.404-.317-.213A.86.86 0 0 1 37.317 69l2.557-3.825a.854.854 0 0 1 1.189-.234l.317.212a.86.86 0 0 1 .233 1.192l-2.557 3.825a.854.854 0 0 1-1.188.235z" fill="url(#m)"/><path d="m58.655 71.428.113-.01a.257.257 0 0 0 .23-.282l-.137-1.37a.257.257 0 0 0-.28-.23l-.114.01a.257.257 0 0 0-.229.281l.137 1.371c.014.143.14.245.28.23z" fill="url(#n)"/><path d="m62.048 70.948.111-.022a.259.259 0 0 0 .2-.304l-.273-1.35a.258.258 0 0 0-.302-.201l-.112.022a.259.259 0 0 0-.2.303l.273 1.35c.03.14.164.23.303.202z" fill="url(#o)"/><path d="m65.375 70.129.108-.034a.257.257 0 0 0 .169-.32l-.406-1.316a.256.256 0 0 0-.32-.169l-.108.034a.257.257 0 0 0-.169.32l.406 1.316c.04.136.185.212.32.169z" fill="url(#p)"/><path d="m68.604 68.981.105-.044a.258.258 0 0 0 .136-.337l-.534-1.27a.257.257 0 0 0-.336-.136l-.105.044a.258.258 0 0 0-.137.337l.535 1.27a.254.254 0 0 0 .336.136z" fill="url(#q)"/><path d="m74.638 65.747.093-.064a.259.259 0 0 0 .067-.357l-.776-1.136a.257.257 0 0 0-.357-.068l-.094.064a.259.259 0 0 0-.067.358l.777 1.136c.081.117.24.147.356.067z" fill="url(#r)"/><path d="m77.384 63.691.088-.073a.257.257 0 0 0 .03-.362l-.885-1.052a.255.255 0 0 0-.361-.03l-.088.073a.257.257 0 0 0-.03.362l.885 1.052c.09.109.253.123.36.03z" fill="url(#s)"/><path d="m79.91 61.372.08-.081a.258.258 0 0 0-.006-.364l-.987-.96a.256.256 0 0 0-.362.007l-.08.081a.258.258 0 0 0 .006.364l.987.96a.257.257 0 0 0 .363-.007z" fill="url(#t)"/><path d="m82.194 58.81.07-.09a.258.258 0 0 0-.041-.36l-1.077-.856a.257.257 0 0 0-.36.042l-.07.09a.258.258 0 0 0 .041.36l1.078.856c.11.089.27.07.36-.042z" fill="url(#u)"/><path d="m85.94 53.067.05-.102a.256.256 0 0 0-.112-.345l-1.225-.623a.255.255 0 0 0-.344.114l-.051.102a.256.256 0 0 0 .113.345l1.225.622c.126.064.28.013.344-.113z" fill="url(#v)"/><path d="m87.366 49.941.04-.107a.257.257 0 0 0-.146-.332l-1.28-.496a.256.256 0 0 0-.331.147l-.042.107a.257.257 0 0 0 .147.332l1.28.496a.255.255 0 0 0 .332-.147z" fill="url(#w)"/><path d="m88.039 26.378-.037-.109a.257.257 0 0 0-.326-.16l-1.299.45a.258.258 0 0 0-.159.326l.037.109a.257.257 0 0 0 .326.16l1.299-.449a.258.258 0 0 0 .159-.327z" fill="url(#x)"/><path d="m86.794 23.176-.047-.104a.256.256 0 0 0-.34-.126l-1.248.576a.258.258 0 0 0-.126.342l.048.104c.058.129.211.185.34.126l1.248-.577a.258.258 0 0 0 .125-.341z" fill="url(#y)"/><path d="m85.237 20.116-.058-.1a.255.255 0 0 0-.35-.09l-1.184.699a.256.256 0 0 0-.09.351l.057.1c.072.122.23.162.35.09l1.184-.7a.256.256 0 0 0 .09-.35z" fill="url(#z)"/><path d="m81.249 14.539-.076-.085a.254.254 0 0 0-.362-.02l-1.021.922a.256.256 0 0 0-.02.362l.077.085a.254.254 0 0 0 .361.019l1.022-.921a.256.256 0 0 0 .019-.362z" fill="url(#A)"/><path d="m78.859 12.077-.084-.076a.254.254 0 0 0-.362.017l-.924 1.018a.256.256 0 0 0 .017.363l.085.076a.254.254 0 0 0 .361-.017l.924-1.018a.256.256 0 0 0-.017-.363z" fill="url(#B)"/><path d="m76.235 9.868-.09-.069a.256.256 0 0 0-.359.053l-.817 1.106a.257.257 0 0 0 .052.36l.09.068c.114.085.274.06.359-.053l.818-1.106a.255.255 0 0 0-.053-.36z" fill="url(#C)"/><path d="m67.238 4.96-.106-.039a.256.256 0 0 0-.326.158l-.456 1.3a.257.257 0 0 0 .158.327l.107.038a.256.256 0 0 0 .326-.158l.455-1.3a.257.257 0 0 0-.158-.326z" fill="url(#D)"/><path d="m63.964 3.95-.11-.026a.256.256 0 0 0-.309.19l-.323 1.339a.256.256 0 0 0 .19.31l.11.027a.256.256 0 0 0 .308-.19l.323-1.34a.258.258 0 0 0-.19-.31z" fill="url(#E)"/><path d="m60.605 3.275-.113-.015a.258.258 0 0 0-.29.218l-.19 1.365c-.018.14.079.27.219.29l.113.016c.14.02.268-.078.29-.218l.189-1.365a.256.256 0 0 0-.218-.29z" fill="url(#F)"/><path d="m50.364 3.303-.113.019a.257.257 0 0 0-.212.295l.223 1.358c.022.14.154.235.294.213l.113-.02a.257.257 0 0 0 .212-.295l-.223-1.358a.257.257 0 0 0-.294-.212z" fill="url(#G)"/><path d="m47.008 3.994-.11.03a.257.257 0 0 0-.182.315l.357 1.33a.256.256 0 0 0 .313.181l.11-.03a.257.257 0 0 0 .181-.315l-.356-1.33a.256.256 0 0 0-.313-.181z" fill="url(#H)"/><path d="m43.738 5.019-.107.04a.257.257 0 0 0-.148.331l.487 1.289c.051.132.199.2.331.148l.107-.04a.257.257 0 0 0 .148-.332l-.487-1.288a.258.258 0 0 0-.331-.148z" fill="url(#I)"/><path d="m34.767 9.973-.09.07a.257.257 0 0 0-.044.361l.845 1.086a.256.256 0 0 0 .36.044l.088-.07a.258.258 0 0 0 .045-.36l-.845-1.086a.255.255 0 0 0-.36-.045z" fill="url(#J)"/><path d="m32.154 12.195-.083.079a.258.258 0 0 0-.008.363l.95.995c.097.102.26.107.363.008l.083-.078a.258.258 0 0 0 .007-.364l-.95-.995a.258.258 0 0 0-.362-.008z" fill="url(#K)"/><path d="m29.776 14.67-.073.086a.257.257 0 0 0 .029.362l1.044.895c.108.093.268.08.36-.028l.074-.086a.257.257 0 0 0-.029-.363l-1.044-.895a.256.256 0 0 0-.36.028z" fill="url(#L)"/><path d="m25.817 20.267-.055.1a.257.257 0 0 0 .1.349l1.2.669c.124.068.28.024.348-.1l.056-.1a.257.257 0 0 0-.1-.35l-1.2-.668a.256.256 0 0 0-.349.1z" fill="url(#M)"/><path d="m24.276 23.335-.045.106a.258.258 0 0 0 .134.338l1.26.546c.13.056.28-.003.337-.134l.045-.105a.258.258 0 0 0-.134-.339l-1.26-.546a.257.257 0 0 0-.337.134z" fill="url(#N)"/><path d="m23.047 26.544-.035.108a.257.257 0 0 0 .167.323l1.31.416a.255.255 0 0 0 .321-.167l.035-.109a.257.257 0 0 0-.167-.322l-1.31-.417a.255.255 0 0 0-.32.168z" fill="url(#O)"/><path d="m23.84 50.104.043.106c.054.13.203.193.335.139l1.268-.529a.258.258 0 0 0 .139-.337l-.043-.105a.257.257 0 0 0-.336-.139l-1.268.529a.26.26 0 0 0-.138.336z" fill="url(#P)"/><path d="m25.281 53.222.054.1a.255.255 0 0 0 .347.104l1.21-.653a.256.256 0 0 0 .103-.348l-.054-.1a.255.255 0 0 0-.347-.104l-1.21.653a.258.258 0 0 0-.103.348z" fill="url(#Q)"/><path d="m29.057 58.946.073.088c.091.108.252.124.361.033l1.056-.881a.258.258 0 0 0 .033-.362l-.073-.088a.256.256 0 0 0-.362-.034l-1.055.882a.257.257 0 0 0-.033.362z" fill="url(#R)"/><path d="m31.353 61.497.081.08c.1.098.263.097.363-.004l.963-.983a.26.26 0 0 0-.003-.364l-.081-.08a.257.257 0 0 0-.363.003l-.963.984c-.1.1-.099.263.003.364z" fill="url(#S)"/><path d="m33.891 63.803.09.072c.11.09.271.072.359-.04l.86-1.074a.255.255 0 0 0-.04-.36l-.09-.073a.254.254 0 0 0-.36.04l-.859 1.074a.259.259 0 0 0 .04.361z" fill="url(#T)"/><path d="m36.647 65.843.096.062c.12.077.277.043.355-.075l.747-1.155a.26.26 0 0 0-.074-.356l-.096-.063a.258.258 0 0 0-.355.076l-.748 1.155a.258.258 0 0 0 .075.356z" fill="url(#U)"/><path d="m42.699 69.048.105.042a.256.256 0 0 0 .332-.145l.505-1.282a.257.257 0 0 0-.145-.334l-.105-.041a.256.256 0 0 0-.333.145l-.504 1.282c-.051.13.013.28.145.333z" fill="url(#V)"/><path d="m45.934 70.178.11.03a.257.257 0 0 0 .316-.176l.374-1.325a.258.258 0 0 0-.177-.318l-.11-.03a.257.257 0 0 0-.316.177l-.374 1.325c-.04.137.04.28.177.317z" fill="url(#W)"/><path d="m49.264 70.98.111.019a.257.257 0 0 0 .298-.207l.24-1.357a.257.257 0 0 0-.207-.299l-.111-.019a.256.256 0 0 0-.298.207l-.24 1.357a.255.255 0 0 0 .207.299z" fill="url(#X)"/><path d="m52.658 71.444.113.008a.257.257 0 0 0 .275-.236l.104-1.373a.257.257 0 0 0-.236-.276l-.113-.008a.257.257 0 0 0-.275.236l-.103 1.373a.256.256 0 0 0 .235.276z" fill="url(#Y)"/><defs><linearGradient id="a" x1="0" y1="38.5" x2="112" y2="38.5" gradientUnits="userSpaceOnUse"><stop stop-color="#E5B251"/><stop offset=".51" stop-color="#D6AD5D"/><stop offset="1" stop-color="#CE922A"/></linearGradient><linearGradient id="b" x1="57.788" y1="38.996" x2="45.161" y2="38.996" gradientUnits="userSpaceOnUse"><stop stop-color="#E5B251"/><stop offset=".506" stop-color="#D6AD5D"/><stop offset="1" stop-color="#CE922A"/></linearGradient><linearGradient id="c" x1="32.709" y1="38.532" x2="45.335" y2="38.532" gradientUnits="userSpaceOnUse"><stop stop-color="#E5B251"/><stop offset=".506" stop-color="#D6AD5D"/><stop offset="1" stop-color="#CE922A"/></linearGradient><linearGradient id="d" x1="54.556" y1="72.838" x2="56.65" y2="72.838" gradientUnits="userSpaceOnUse"><stop stop-color="#E5B251"/><stop offset=".506" stop-color="#D6AD5D"/><stop offset="1" stop-color="#CE922A"/></linearGradient><linearGradient id="e" x1="69.574" y1="67.753" x2="73.89" y2="67.753" gradientUnits="userSpaceOnUse"><stop stop-color="#E5B251"/><stop offset=".506" stop-color="#D6AD5D"/><stop offset="1" stop-color="#CE922A"/></linearGradient><linearGradient id="f" x1="81.104" y1="55.962" x2="86.96" y2="55.962" gradientUnits="userSpaceOnUse"><stop stop-color="#E5B251"/><stop offset=".506" stop-color="#D6AD5D"/><stop offset="1" stop-color="#CE922A"/></linearGradient><linearGradient id="g" x1="80.729" y1="17.331" x2="86.46" y2="17.331" gradientUnits="userSpaceOnUse"><stop stop-color="#E5B251"/><stop offset=".506" stop-color="#D6AD5D"/><stop offset="1" stop-color="#CE922A"/></linearGradient><linearGradient id="h" x1="69.439" y1="7.143" x2="73.892" y2="7.143" gradientUnits="userSpaceOnUse"><stop stop-color="#E5B251"/><stop offset=".506" stop-color="#D6AD5D"/><stop offset="1" stop-color="#CE922A"/></linearGradient><linearGradient id="i" x1="54.243" y1="3.163" x2="56.337" y2="3.163" gradientUnits="userSpaceOnUse"><stop stop-color="#E5B251"/><stop offset=".506" stop-color="#D6AD5D"/><stop offset="1" stop-color="#CE922A"/></linearGradient><linearGradient id="j" x1="37.18" y1="7.066" x2="41.355" y2="7.066" gradientUnits="userSpaceOnUse"><stop stop-color="#E5B251"/><stop offset=".506" stop-color="#D6AD5D"/><stop offset="1" stop-color="#CE922A"/></linearGradient><linearGradient id="k" x1="24.749" y1="17.331" x2="30.528" y2="17.331" gradientUnits="userSpaceOnUse"><stop stop-color="#E5B251"/><stop offset=".506" stop-color="#D6AD5D"/><stop offset="1" stop-color="#CE922A"/></linearGradient><linearGradient id="l" x1="24.458" y1="56.046" x2="30.189" y2="56.046" gradientUnits="userSpaceOnUse"><stop stop-color="#E5B251"/><stop offset=".506" stop-color="#D6AD5D"/><stop offset="1" stop-color="#CE922A"/></linearGradient><linearGradient id="m" x1="37.173" y1="67.671" x2="41.761" y2="67.671" gradientUnits="userSpaceOnUse"><stop stop-color="#E5B251"/><stop offset=".506" stop-color="#D6AD5D"/><stop offset="1" stop-color="#CE922A"/></linearGradient><linearGradient id="n" x1="58.237" y1="70.482" x2="59" y2="70.482" gradientUnits="userSpaceOnUse"><stop stop-color="#E5B251"/><stop offset=".506" stop-color="#D6AD5D"/><stop offset="1" stop-color="#CE922A"/></linearGradient><linearGradient id="o" x1="61.467" y1="70.01" x2="62.364" y2="70.01" gradientUnits="userSpaceOnUse"><stop stop-color="#E5B251"/><stop offset=".506" stop-color="#D6AD5D"/><stop offset="1" stop-color="#CE922A"/></linearGradient><linearGradient id="p" x1="64.636" y1="69.209" x2="65.664" y2="69.209" gradientUnits="userSpaceOnUse"><stop stop-color="#E5B251"/><stop offset=".506" stop-color="#D6AD5D"/><stop offset="1" stop-color="#CE922A"/></linearGradient><linearGradient id="q" x1="67.712" y1="68.089" x2="68.864" y2="68.089" gradientUnits="userSpaceOnUse"><stop stop-color="#E5B251"/><stop offset=".506" stop-color="#D6AD5D"/><stop offset="1" stop-color="#CE922A"/></linearGradient><linearGradient id="r" x1="73.46" y1="64.934" x2="74.843" y2="64.934" gradientUnits="userSpaceOnUse"><stop stop-color="#E5B251"/><stop offset=".506" stop-color="#D6AD5D"/><stop offset="1" stop-color="#CE922A"/></linearGradient><linearGradient id="s" x1="76.076" y1="62.932" x2="77.561" y2="62.932" gradientUnits="userSpaceOnUse"><stop stop-color="#E5B251"/><stop offset=".506" stop-color="#D6AD5D"/><stop offset="1" stop-color="#CE922A"/></linearGradient><linearGradient id="t" x1="78.484" y1="60.673" x2="80.062" y2="60.673" gradientUnits="userSpaceOnUse"><stop stop-color="#E5B251"/><stop offset=".506" stop-color="#D6AD5D"/><stop offset="1" stop-color="#CE922A"/></linearGradient><linearGradient id="u" x1="80.66" y1="58.179" x2="82.319" y2="58.179" gradientUnits="userSpaceOnUse"><stop stop-color="#E5B251"/><stop offset=".506" stop-color="#D6AD5D"/><stop offset="1" stop-color="#CE922A"/></linearGradient><linearGradient id="v" x1="84.23" y1="52.588" x2="86.019" y2="52.588" gradientUnits="userSpaceOnUse"><stop stop-color="#E5B251"/><stop offset=".506" stop-color="#D6AD5D"/><stop offset="1" stop-color="#CE922A"/></linearGradient><linearGradient id="w" x1="85.589" y1="49.548" x2="87.423" y2="49.548" gradientUnits="userSpaceOnUse"><stop stop-color="#E5B251"/><stop offset=".506" stop-color="#D6AD5D"/><stop offset="1" stop-color="#CE922A"/></linearGradient><linearGradient id="x" x1="86.205" y1="26.632" x2="88.053" y2="26.632" gradientUnits="userSpaceOnUse"><stop stop-color="#E5B251"/><stop offset=".506" stop-color="#D6AD5D"/><stop offset="1" stop-color="#CE922A"/></linearGradient><linearGradient id="y" x1="85.011" y1="23.52" x2="86.818" y2="23.52" gradientUnits="userSpaceOnUse"><stop stop-color="#E5B251"/><stop offset=".506" stop-color="#D6AD5D"/><stop offset="1" stop-color="#CE922A"/></linearGradient><linearGradient id="z" x1="83.519" y1="20.546" x2="85.272" y2="20.546" gradientUnits="userSpaceOnUse"><stop stop-color="#E5B251"/><stop offset=".506" stop-color="#D6AD5D"/><stop offset="1" stop-color="#CE922A"/></linearGradient><linearGradient id="A" x1="79.706" y1="15.128" x2="81.315" y2="15.128" gradientUnits="userSpaceOnUse"><stop stop-color="#E5B251"/><stop offset=".506" stop-color="#D6AD5D"/><stop offset="1" stop-color="#CE922A"/></linearGradient><linearGradient id="B" x1="77.422" y1="12.738" x2="78.943" y2="12.738" gradientUnits="userSpaceOnUse"><stop stop-color="#E5B251"/><stop offset=".506" stop-color="#D6AD5D"/><stop offset="1" stop-color="#CE922A"/></linearGradient><linearGradient id="C" x1="74.917" y1="10.593" x2="76.339" y2="10.593" gradientUnits="userSpaceOnUse"><stop stop-color="#E5B251"/><stop offset=".506" stop-color="#D6AD5D"/><stop offset="1" stop-color="#CE922A"/></linearGradient><linearGradient id="D" x1="66.334" y1="5.832" x2="67.41" y2="5.832" gradientUnits="userSpaceOnUse"><stop stop-color="#E5B251"/><stop offset=".506" stop-color="#D6AD5D"/><stop offset="1" stop-color="#CE922A"/></linearGradient><linearGradient id="E" x1="63.213" y1="4.856" x2="64.16" y2="4.856" gradientUnits="userSpaceOnUse"><stop stop-color="#E5B251"/><stop offset=".506" stop-color="#D6AD5D"/><stop offset="1" stop-color="#CE922A"/></linearGradient><linearGradient id="F" x1="60.012" y1="4.205" x2="60.826" y2="4.205" gradientUnits="userSpaceOnUse"><stop stop-color="#E5B251"/><stop offset=".506" stop-color="#D6AD5D"/><stop offset="1" stop-color="#CE922A"/></linearGradient><linearGradient id="G" x1="50.036" y1="4.244" x2="50.883" y2="4.244" gradientUnits="userSpaceOnUse"><stop stop-color="#E5B251"/><stop offset=".506" stop-color="#D6AD5D"/><stop offset="1" stop-color="#CE922A"/></linearGradient><linearGradient id="H" x1="46.708" y1="4.922" x2="47.687" y2="4.922" gradientUnits="userSpaceOnUse"><stop stop-color="#E5B251"/><stop offset=".506" stop-color="#D6AD5D"/><stop offset="1" stop-color="#CE922A"/></linearGradient><linearGradient id="I" x1="43.467" y1="5.923" x2="44.573" y2="5.923" gradientUnits="userSpaceOnUse"><stop stop-color="#E5B251"/><stop offset=".506" stop-color="#D6AD5D"/><stop offset="1" stop-color="#CE922A"/></linearGradient><linearGradient id="J" x1="34.578" y1="10.754" x2="36.025" y2="10.754" gradientUnits="userSpaceOnUse"><stop stop-color="#E5B251"/><stop offset=".506" stop-color="#D6AD5D"/><stop offset="1" stop-color="#CE922A"/></linearGradient><linearGradient id="K" x1="31.992" y1="12.919" x2="33.536" y2="12.919" gradientUnits="userSpaceOnUse"><stop stop-color="#E5B251"/><stop offset=".506" stop-color="#D6AD5D"/><stop offset="1" stop-color="#CE922A"/></linearGradient><linearGradient id="L" x1="29.64" y1="15.327" x2="31.27" y2="15.327" gradientUnits="userSpaceOnUse"><stop stop-color="#E5B251"/><stop offset=".506" stop-color="#D6AD5D"/><stop offset="1" stop-color="#CE922A"/></linearGradient><linearGradient id="M" x1="25.729" y1="20.777" x2="27.497" y2="20.777" gradientUnits="userSpaceOnUse"><stop stop-color="#E5B251"/><stop offset=".506" stop-color="#D6AD5D"/><stop offset="1" stop-color="#CE922A"/></linearGradient><linearGradient id="N" x1="24.209" y1="23.763" x2="26.028" y2="23.763" gradientUnits="userSpaceOnUse"><stop stop-color="#E5B251"/><stop offset=".506" stop-color="#D6AD5D"/><stop offset="1" stop-color="#CE922A"/></linearGradient><linearGradient id="O" x1="23" y1="26.884" x2="24.856" y2="26.884" gradientUnits="userSpaceOnUse"><stop stop-color="#E5B251"/><stop offset=".506" stop-color="#D6AD5D"/><stop offset="1" stop-color="#CE922A"/></linearGradient><linearGradient id="P" x1="23.821" y1="49.794" x2="25.645" y2="49.794" gradientUnits="userSpaceOnUse"><stop stop-color="#E5B251"/><stop offset=".506" stop-color="#D6AD5D"/><stop offset="1" stop-color="#CE922A"/></linearGradient><linearGradient id="Q" x1="25.251" y1="52.823" x2="27.026" y2="52.823" gradientUnits="userSpaceOnUse"><stop stop-color="#E5B251"/><stop offset=".506" stop-color="#D6AD5D"/><stop offset="1" stop-color="#CE922A"/></linearGradient><linearGradient id="R" x1="28.997" y1="58.385" x2="30.638" y2="58.385" gradientUnits="userSpaceOnUse"><stop stop-color="#E5B251"/><stop offset=".506" stop-color="#D6AD5D"/><stop offset="1" stop-color="#CE922A"/></linearGradient><linearGradient id="S" x1="31.276" y1="60.861" x2="32.832" y2="60.861" gradientUnits="userSpaceOnUse"><stop stop-color="#E5B251"/><stop offset=".506" stop-color="#D6AD5D"/><stop offset="1" stop-color="#CE922A"/></linearGradient><linearGradient id="T" x1="33.796" y1="63.101" x2="35.256" y2="63.101" gradientUnits="userSpaceOnUse"><stop stop-color="#E5B251"/><stop offset=".506" stop-color="#D6AD5D"/><stop offset="1" stop-color="#CE922A"/></linearGradient><linearGradient id="U" x1="36.531" y1="65.082" x2="37.886" y2="65.082" gradientUnits="userSpaceOnUse"><stop stop-color="#E5B251"/><stop offset=".506" stop-color="#D6AD5D"/><stop offset="1" stop-color="#CE922A"/></linearGradient><linearGradient id="V" x1="42.536" y1="68.189" x2="43.658" y2="68.189" gradientUnits="userSpaceOnUse"><stop stop-color="#E5B251"/><stop offset=".506" stop-color="#D6AD5D"/><stop offset="1" stop-color="#CE922A"/></linearGradient><linearGradient id="W" x1="45.746" y1="69.285" x2="46.742" y2="69.285" gradientUnits="userSpaceOnUse"><stop stop-color="#E5B251"/><stop offset=".506" stop-color="#D6AD5D"/><stop offset="1" stop-color="#CE922A"/></linearGradient><linearGradient id="X" x1="49.052" y1="70.059" x2="49.916" y2="70.059" gradientUnits="userSpaceOnUse"><stop stop-color="#E5B251"/><stop offset=".506" stop-color="#D6AD5D"/><stop offset="1" stop-color="#CE922A"/></linearGradient><linearGradient id="Y" x1="52.421" y1="70.505" x2="53.15" y2="70.505" gradientUnits="userSpaceOnUse"><stop stop-color="#E5B251"/><stop offset=".506" stop-color="#D6AD5D"/><stop offset="1" stop-color="#CE922A"/></linearGradient></defs></svg>