<svg width="149" height="30" viewBox="0 0 149 30" fill="none" xmlns="http://www.w3.org/2000/svg">
<path d="M25.913 2.50152L25.7658 2.35446C18.6986 -0.586719 10.8953 -0.43966 3.82806 2.35446L3.5336 2.50152C2.79743 2.79563 2.2085 3.53093 2.2085 4.41328V22.0603C2.2085 23.0898 2.79743 24.1192 3.82806 24.5603L13.6927 29.4133C14.4289 29.7074 15.165 29.7074 15.9012 29.4133L25.7658 24.5603C26.6492 24.1192 27.3854 23.0898 27.3854 22.0603V4.41328C27.2381 3.67799 26.6492 2.79563 25.913 2.50152ZM26.2075 22.0603C26.2075 22.7956 25.7658 23.3839 25.1769 23.678L15.3123 28.5309C14.8706 28.678 14.4289 28.678 13.9872 28.5309L4.12253 23.678C3.53359 23.5309 3.23913 22.7956 3.23913 22.0603V4.41328C3.23913 3.9721 3.5336 3.67799 3.97529 3.38387L4.26976 3.23681C11.0425 0.442693 18.6986 0.442693 25.4713 3.23681L25.6186 3.38387C26.0603 3.53093 26.3547 3.9721 26.3547 4.56034L26.2075 22.0603Z" fill="#1A1818"/>
<path d="M21.2016 7.20752C21.0544 7.20752 21.0544 7.20752 21.0544 7.20752C20.9071 7.6487 20.0237 8.97223 16.6374 8.53105C14.4289 8.23693 12.8093 8.53105 11.9259 8.82517C11.337 8.97223 10.748 9.26634 10.3063 9.56046C10.0119 9.85458 9.7174 10.1487 9.57017 10.5899C9.2757 11.3252 9.42293 12.2075 10.1591 12.5016C10.4536 12.6487 10.748 12.6487 11.1897 12.6487C11.1897 12.6487 11.337 12.6487 11.337 12.5016V12.3546V12.2075C11.337 12.2075 11.337 12.2075 11.1897 12.2075C11.0425 12.2075 10.8953 12.2075 10.748 12.0605C10.3063 12.0605 10.1591 11.7663 10.1591 11.4722C10.1591 11.1781 10.3063 10.884 10.4536 10.5899C11.0425 10.1487 11.7787 9.85458 12.5148 9.85458H12.6621C13.251 9.85458 13.9872 10.0016 14.5761 10.0016C14.7233 10.0016 14.7233 10.0016 14.8706 10.0016C15.0178 10.0016 15.0178 10.0016 15.165 10.0016C15.0178 10.1487 14.8706 10.2958 14.7233 10.4428C14.4289 11.4722 13.9872 12.2075 13.6927 12.9428C13.251 13.9722 12.9565 15.1487 12.6621 16.1781C12.0731 18.2369 11.0425 19.4134 9.57017 19.4134C9.12847 19.4134 8.24507 19.2663 7.9506 18.384C7.65614 17.6487 8.3923 16.7663 8.53953 16.6193V16.4722L7.36167 16.031H7.21444C7.0672 16.4722 6.91997 16.9134 6.91997 17.3546C6.91997 17.3546 6.77274 18.531 7.65613 19.4134C8.24507 20.0016 8.98123 20.2958 10.1591 20.2958C11.0425 20.2958 11.7787 20.0016 12.5148 19.5605C13.5455 18.9722 14.1344 17.9428 14.4289 17.0605C14.8706 16.1781 15.165 15.2958 15.4595 14.2663H17.8152C17.9625 14.2663 17.9625 14.2663 18.1097 14.4134L18.8459 15.0016C18.8459 15.0016 18.9931 15.0016 19.1403 15.0016C19.1403 15.0016 19.1403 15.0016 19.1403 14.8546V12.6487C19.1403 12.5016 19.1403 12.5016 18.9931 12.5016C18.9931 12.5016 18.9931 12.5016 18.8459 12.5016L18.1097 13.2369C17.9625 13.2369 17.9625 13.2369 17.8152 13.2369H15.754C15.9012 12.6487 16.0484 12.0605 16.3429 11.4722C16.4901 11.1781 16.6374 10.884 16.9318 10.5899H17.0791C19.1403 10.5899 20.9071 10.1487 22.085 9.11928C22.085 9.11928 22.2322 9.11928 22.2322 8.97222C22.3795 8.82517 22.5267 8.67811 22.5267 8.53105V8.38399L21.2016 7.20752Z" fill="#1A1818"/>
<mask id="mask0_43_1703" style="mask-type:luminance" maskUnits="userSpaceOnUse" x="45" y="5" width="95" height="20">
<path d="M139.577 5H45.0533V25H139.577V5Z" fill="white"/>
</mask>
<g mask="url(#mask0_43_1703)">
<path d="M56.6848 5.29412H45.2006C45.0533 5.29412 45.0533 5.44118 45.0533 5.44118V24.4118C45.0533 24.5588 45.2006 24.5588 45.2006 24.5588H48.5869C48.7342 24.5588 48.7342 24.4118 48.7342 24.4118V16.1765C48.7342 16.0294 48.8814 16.0294 48.8814 16.0294H53.8873C54.0346 16.0294 54.0346 15.8824 54.0346 15.8824V12.9412C54.0346 12.7941 53.8873 12.7941 53.8873 12.7941H48.8814C48.7342 12.7941 48.7342 12.6471 48.7342 12.6471V8.82353C48.7342 8.67647 48.8814 8.67647 48.8814 8.67647H56.5375C56.6848 8.67647 56.6848 8.52941 56.6848 8.52941V5.58824C56.832 5.44118 56.6848 5.29412 56.6848 5.29412ZM69.0524 5C63.6047 5 59.9239 9.41176 59.9239 15C59.9239 20.5882 63.6047 25 69.0524 25C74.5 25 78.1808 20.5882 78.1808 15C78.1808 9.41176 74.5 5 69.0524 5ZM69.0524 21.6176C65.8132 21.6176 63.4575 18.6765 63.4575 15C63.4575 11.3235 65.8132 8.38235 69.0524 8.38235C72.2915 8.38235 74.6472 11.3235 74.6472 15C74.6472 18.6765 72.2915 21.6176 69.0524 21.6176ZM122.056 5.29412H118.67C118.523 5.29412 118.523 5.44118 118.523 5.44118V24.4118C118.523 24.5588 118.67 24.5588 118.67 24.5588H122.056C122.204 24.5588 122.204 24.4118 122.204 24.4118V5.44118L122.056 5.29412C121.909 5.29412 121.909 5.29412 122.056 5.29412ZM139.43 21.3235H133.393C133.246 21.3235 133.246 21.1765 133.246 21.1765V5.58824C133.246 5.44118 133.099 5.44118 133.099 5.44118H129.565C129.418 5.44118 129.418 5.58824 129.418 5.58824V24.5588C129.418 24.7059 129.565 24.7059 129.565 24.7059H139.283C139.43 24.7059 139.43 24.5588 139.43 24.5588V21.6176C139.577 21.4706 139.43 21.3235 139.43 21.3235ZM86.1314 10.4412C86.1314 8.97059 87.751 8.38235 89.0761 8.38235C90.2539 8.38235 91.4318 8.82353 92.3152 9.55882H92.4624L94.2292 6.91176V6.76471C92.6097 5.58824 90.6956 5 88.7816 5C85.5425 5 82.4506 7.05882 82.4506 10.4412C82.4506 12.3529 83.4812 13.9706 85.248 14.8529C87.8982 16.3235 91.4318 16.6176 91.4318 19.1176C91.4318 20.5882 90.2539 21.6176 88.7816 21.6176H88.6344C86.8676 21.6176 85.3952 20.8824 84.2174 19.5588H84.0701L82.1561 22.2059V22.3529C83.9229 23.9706 86.2786 24.8529 88.6344 24.8529C92.168 24.8529 95.2599 22.5 95.2599 18.9706C95.1126 12.6471 86.1314 13.6765 86.1314 10.4412ZM103.358 10.4412C103.358 8.97059 104.977 8.38235 106.302 8.38235C107.48 8.38235 108.511 8.82353 109.541 9.55882C109.689 9.55882 109.689 9.55882 109.836 9.55882L111.603 7.20588C111.603 7.05882 111.603 7.05882 111.603 6.91176C109.983 5.73529 108.069 5.14706 106.155 5.14706C102.916 5.14706 99.8241 7.20588 99.8241 10.5882C99.8241 12.5 100.855 14.1176 102.622 15C105.272 16.4706 108.805 16.7647 108.805 19.2647C108.805 20.7353 107.627 21.7647 106.155 21.7647H106.008C104.388 21.7647 102.769 21.0294 101.591 19.8529C101.444 19.7059 101.444 19.7059 101.296 19.8529L99.5296 22.3529C99.5296 22.5 99.5296 22.5 99.5296 22.6471C101.296 24.1176 103.652 25 106.008 25.1471C109.541 25.1471 112.633 22.7941 112.633 19.2647C112.192 12.6471 103.358 13.6765 103.358 10.4412Z" fill="#1A1818"/>
</g>
</svg>
