<svg width="48" height="48" fill="none" xmlns="http://www.w3.org/2000/svg"><path d="M12.112 12.857c-.029-.274-.18-.375-.281-.505-1.796-2.265-2.297-4.78-1.267-7.49 1.039-2.729 3.091-4.37 5.967-4.765 2.915-.401 5.324.656 7.114 3.026.38.504.369.514.72.015C26.09.698 29.256-.501 32.13.197c3.047.738 5.296 3.162 5.74 6.17.331 2.24-.252 4.22-1.664 5.97-.086.107-.17.213-.253.322-.019.026-.023.063-.04.107.169.169.384.09.574.09 2.575.007 5.15-.007 7.726.008 1.905.01 3.28 1.055 3.709 2.765.068.269.075.539.075.812.001 2.081.005 4.16-.001 6.242-.006 1.709-1.047 3.04-2.728 3.426-.445.102-.554.292-.554.721.012 5.885.01 11.769.006 17.653-.001 1.697-1.08 3.048-2.72 3.453-.271.067-.541.072-.813.072-11.444.002-22.889.003-34.334-.001-2.048 0-3.55-1.507-3.552-3.557-.005-5.85-.008-11.7.01-17.55.001-.502-.14-.697-.638-.81C1.1 25.727.037 24.36.028 22.75c-.008-2.013.07-4.029-.024-6.036-.087-1.91 1.295-3.873 3.837-3.86 2.542.014 5.083.003 7.624.003h.647zM26.71 36.07c0 3.053.011 6.105-.01 9.157-.005.504.113.674.648.671 4.468-.022 8.936-.01 13.404-.012 1.34 0 1.853-.517 1.853-1.866.001-5.696-.005-11.39.011-17.087.001-.506-.13-.68-.657-.678-4.86.017-9.72.01-14.58.01-.666 0-.668.005-.668.698v9.107zm-5.395.046V26.96c0-.69-.001-.692-.671-.692-4.843-.002-9.685-.002-14.529 0-.69 0-.693.003-.693.671 0 5.697-.002 11.392 0 17.088 0 1.34.521 1.861 1.859 1.863h13.352c.681 0 .682-.002.682-.665.002-3.038 0-6.073 0-9.108zM12.23 24.09c2.83 0 5.662-.011 8.493.01.477.003.606-.148.603-.613-.02-2.61-.02-5.22-.001-7.829.002-.451-.1-.622-.593-.62-5.594.016-11.188.01-16.782.012-1.278 0-1.801.525-1.804 1.805-.004 1.809-.004 3.616 0 5.424.003 1.287.523 1.808 1.795 1.81 2.763.002 5.527 0 8.29 0zm23.555 0c2.78 0 5.56.001 8.34-.002 1.21-.001 1.75-.535 1.755-1.745.007-1.842.006-3.683 0-5.526-.004-1.238-.539-1.767-1.792-1.767-5.594-.003-11.188.004-16.78-.011-.473-.001-.61.136-.606.607.02 2.61.023 5.219-.002 7.828-.004.505.163.628.643.625 2.814-.02 5.628-.01 8.442-.01zm-7.507-11.233v-.006c.8 0 1.602.018 2.403-.002 3.22-.082 5.632-3.132 5.035-6.299-.49-2.589-2.936-4.656-5.865-4.329-2.462.275-4.466 2.241-4.7 4.713-.173 1.837-.034 3.68-.079 5.517-.01.372.21.409.495.407.904-.004 1.807-.001 2.71-.001zm-8.78 0c1.127 0 2.046-.003 2.968.001.288.002.5-.044.49-.41-.046-1.839.094-3.681-.08-5.518-.296-3.14-3.381-5.34-6.477-4.624-2.464.57-4.146 2.684-4.148 5.215-.002 2.526 1.674 4.645 4.14 5.213 1.093.252 2.21.063 3.106.123zm3.938 23.241v4.042c0 1.74.005 3.48-.004 5.22-.002.341.049.542.466.537.692-.011.694.013.694-.714V27.015c0-.153-.002-.307-.009-.46-.005-.16-.098-.236-.25-.277-.627-.17-.897.024-.897.659v9.16zm1.156-16.51c0-1.345-.02-2.69.01-4.035.012-.483-.224-.507-.594-.513-.39-.006-.585.069-.58.527.019 2.672.02 5.344-.002 8.016-.004.482.225.508.595.515.39.007.59-.068.58-.528-.027-1.327-.01-2.655-.01-3.982z" fill="#fff"/></svg>