<svg width="48" height="48" fill="none" xmlns="http://www.w3.org/2000/svg"><path d="M0 36.172c.139-.264.322-.491.533-.703 1.356-1.352 2.715-2.702 4.059-4.067.635-.646 1.37-1.02 2.288-.959.294.02.443-.111.588-.351 1.881-3.124 4.683-4.865 8.247-5.448 2.23-.364 4.404-.158 6.516.653.255.098.515.107.78.107 3.208-.002 6.416.007 9.624-.006 1.14-.003 2.153.306 2.98 1.108.238.231.381.157.573-.041 1.733-1.79 3.493-3.555 5.2-5.37 1.869-1.985 5.193-1.576 6.235.91.55 1.31.572 2.757-.425 3.974-1.66 2.023-3.346 4.023-5.022 6.03a2816.436 2816.436 0 0 1-3.06 3.653c-1.63 1.944-3.744 2.924-6.254 2.951-4.094.045-8.19.043-12.287-.004-1.345-.015-2.203.702-3.025 1.586-.114.122-.082.256-.057.395.214 1.176-.183 2.12-1.036 2.937-1.385 1.322-2.736 2.68-4.105 4.02-.618.606-1.112.604-1.729-.018-3.402-3.426-6.8-6.855-10.2-10.28a1.932 1.932 0 0 1-.423-.61v-.467zm26.778.458v-.01c2.134 0 4.27.049 6.401-.015 1.725-.052 3.194-.77 4.324-2.1 1.36-1.6 2.705-3.219 4.052-4.833 1.359-1.625 2.726-3.241 4.065-4.883.657-.804.555-1.88-.177-2.525-.741-.651-1.809-.615-2.528.12-1.982 2.027-3.951 4.066-5.929 6.096a.8.8 0 0 0-.235.583c-.059 2.399-1.644 3.948-4.04 3.951-2.336.004-4.673.003-7.009 0-.201 0-.409-.002-.601-.05-.478-.117-.741-.47-.741-.947 0-.475.267-.833.742-.947.209-.05.431-.054.648-.054 2.398-.003 4.797.003 7.196-.006 1.035-.004 1.79-.746 1.81-1.743.02-1.1-.734-1.86-1.884-1.862-3.379-.007-6.76-.003-10.138-.002-.298 0-.59-.01-.871-.129-1.84-.785-3.756-.978-5.721-.698-2.954.421-5.284 1.837-6.904 4.379-.229.359-.196.57.104.868 2.15 2.123 4.28 4.267 6.417 6.404.486.486.501.5.96.018 1.088-1.143 2.421-1.635 3.984-1.62 2.026.021 4.05.005 6.075.005zm-20.04-4.238c-.271.034-.5.15-.695.346C4.9 33.885 3.76 35.032 2.61 36.17c-.19.187-.192.307-.001.491.546.53 1.08 1.078 1.616 1.62 2.31 2.332 4.621 4.664 6.93 6.998.199.202.343.37.633.075 1.134-1.153 2.298-2.28 3.441-3.424.481-.48.496-.918.032-1.384-2.602-2.612-5.213-5.217-7.82-7.826a1.086 1.086 0 0 0-.703-.328zM29.254 0c1.434.259 2.819.66 4.058 1.455 3.017 1.937 4.715 4.67 4.949 8.273.343 5.258-3.478 10.068-8.943 10.839-5.497.774-10.807-3.19-11.594-8.656-.832-5.775 2.925-10.896 8.69-11.848.075-.013.15-.042.223-.063h2.617zm-1.332 18.669c4.625.005 8.416-3.748 8.4-8.358-.015-4.513-3.533-8.382-8.375-8.38-4.844 0-8.359 3.863-8.379 8.378-.02 4.585 3.765 8.354 8.354 8.36z" fill="#fff"/><path d="M21.404 30.891a.948.948 0 0 1 .984.955.963.963 0 0 1-.957.988.958.958 0 0 1-.986-.957.961.961 0 0 1 .959-.986zM27.777 3.712c.536.009.98.393.932.95-.067.738.122 1.24.853 1.515.233.088.433.305.607.5.32.36.31.881.014 1.244a.985.985 0 0 1-1.267.219c-.198-.12-.37-.288-.571-.402-.378-.212-.78-.264-1.138.024-.286.23-.4.548-.276.92.149.446.485.612.928.64 1.363.09 2.406.965 2.693 2.251.277 1.246-.297 2.469-1.494 3.13-.235.13-.35.276-.334.546.016.263.017.53-.01.793a.977.977 0 0 1-.951.862c-.49.003-1-.406-.948-.895.082-.796-.16-1.313-.916-1.624-.34-.14-.592-.453-.821-.751-.343-.446-.298-.992.093-1.349.385-.353.935-.345 1.348.039.263.245.512.5.849.646.35.15.675.105.957-.142.264-.231.378-.525.272-.88-.109-.366-.341-.59-.728-.625-.827-.075-1.595-.292-2.18-.926-1.293-1.404-.965-3.523.709-4.468.302-.17.435-.354.399-.693a3.354 3.354 0 0 1 .005-.653c.044-.522.454-.88.975-.87z" fill="#fff"/></svg>