<svg width="44" height="27" fill="none" xmlns="http://www.w3.org/2000/svg"><g clip-path="url(#a)" fill="#fff"><path d="M0 16.104v-.86c.313-.659.831-.905 1.558-.901 3.65.019 7.301.01 10.953.008 1.002 0 1.63-.485 1.63-1.255 0-.771-.627-1.255-1.63-1.255-3.65 0-7.3-.011-10.952.009-.728.003-1.246-.243-1.559-.902v-.86c.313-.658.831-.908 1.559-.9 2.392.023 4.783.007 7.175.01.26 0 .516-.018.761-.107.548-.2.842-.699.79-1.332-.041-.525-.339-.827-.948-.935a4.03 4.03 0 0 0-.683-.05c-2.033-.005-4.068.004-6.1-.008-.753-.005-1.296-.581-1.296-1.32.001-.737.546-1.294 1.299-1.317.314-.01.63-.002.945-.003.58-.002.588-.008.59-.568.001-.702-.003-1.403.001-2.105C4.098.51 4.61.002 5.562.002 13.123 0 20.685 0 28.247.002c.572 0 .575.003.576.567v6.83c.001 1.149.474 1.624 1.617 1.624 3.05.002 6.1 0 9.151.001 2.254 0 3.717 1.068 4.41 3.213v9.024c-.314.657-.831.943-1.56.898-.456-.029-.918.018-1.374-.012-.393-.026-.58.106-.705.497-.675 2.105-2.54 3.459-4.716 3.462-2.215.002-4.083-1.337-4.764-3.457-.124-.384-.304-.505-.7-.504-3.938.014-7.876.016-11.815-.003-.469-.002-.666.143-.813.59-.792 2.41-3.302 3.836-5.757 3.27-1.865-.43-3.11-1.583-3.71-3.402-.108-.329-.255-.464-.604-.453-.658.022-1.317.01-1.975.005-.89-.007-1.41-.527-1.416-1.418a249.81 249.81 0 0 1 .002-3.308c.003-.313-.116-.437-.43-.432-.702.012-1.405-.021-2.105.01-.728.033-1.245-.242-1.559-.9zm12.867 2.704c-1.268.007-2.347 1.077-2.344 2.325.003 1.251 1.093 2.327 2.35 2.317 1.239-.009 2.298-1.08 2.296-2.322-.004-1.242-1.08-2.327-2.302-2.32zm22.771 0c-1.27.01-2.347 1.08-2.341 2.327.006 1.253 1.097 2.327 2.352 2.315 1.24-.013 2.298-1.087 2.292-2.326-.006-1.243-1.082-2.325-2.303-2.316z"/><path d="M34.934 6.511c-1.046 0-2.091-.01-3.136.006-.356.007-.471-.12-.469-.471.013-1.776.015-3.552 0-5.328-.004-.391.13-.458.482-.365 1.875.5 3.423 1.497 4.642 3.007.694.861 1.285 1.791 1.847 2.742.21.356.183.407-.229.409-1.046.004-2.092 0-3.137 0z"/></g><defs><clipPath id="a"><path fill="#fff" d="M0 0h44v26.125H0z"/></clipPath></defs></svg>