<svg width="34" height="34" fill="none" xmlns="http://www.w3.org/2000/svg"><g clip-path="url(#a)"><path d="M34 2.656v1.262c-.213.885-.746 1.552-1.396 2.167-2.153 2.04-4.279 4.107-6.43 6.147-.298.283-.37.513-.236.913 1.784 5.338 3.546 10.684 5.325 16.024.11.331.065.542-.185.785-.999.973-1.976 1.967-2.962 2.953-.332.33-.334.33-.58-.068a22911.44 22911.44 0 0 1-4.838-7.855l-3.445-5.596c-.098-.16-.163-.358-.405-.122-2.333 2.25-4.672 4.494-7.013 6.738a.468.468 0 0 0-.152.47c.225 1.317.428 2.64.655 3.957.046.26-.011.44-.195.62a202.83 202.83 0 0 0-2.137 2.135c-.264.267-.556.508-.776.816h-.133c-.045-.113-.094-.224-.134-.34-.69-1.968-1.386-3.936-2.06-5.91-.119-.35-.302-.535-.653-.656-2.089-.717-4.168-1.459-6.25-2.192v-.066c.999-1.004 2.002-2.004 2.996-3.012.168-.17.337-.204.566-.165 1.286.22 2.575.415 3.86.642.286.05.469-.017.665-.224 1.772-1.859 3.554-3.707 5.332-5.558.422-.44.833-.889 1.268-1.314.219-.213.193-.338-.067-.458-.07-.032-.132-.08-.198-.12C9.994 11.9 5.565 9.174 1.137 6.447c-.372-.23-.372-.233-.067-.538.953-.955 1.925-1.894 2.854-2.872.33-.348.611-.407 1.065-.255 5.307 1.777 10.622 3.528 15.93 5.3.347.115.552.056.801-.206 2.058-2.167 4.14-4.31 6.195-6.479C28.53.747 29.197.213 30.082 0h1.262c.465.14.92.298 1.32.59.712.519 1.116 1.232 1.336 2.066z" fill="#fff"/></g><defs><clipPath id="a"><path fill="#fff" d="M0 0h34v34H0z"/></clipPath></defs></svg>