<svg width="44" height="44" fill="none" xmlns="http://www.w3.org/2000/svg"><g clip-path="url(#a)" fill="#fff"><path d="M22.482 29.428c0-2.548.014-5.097-.014-7.645-.005-.501.172-.739.605-.957 4.313-2.163 8.613-4.35 12.917-6.528.4-.203.465-.168.465.287.003 5.007 0 10.014.003 15.02 0 .647-.32 1.061-.88 1.355-2.926 1.53-5.845 3.073-8.766 4.611l-3.8 2.004c-.474.25-.53.222-.53-.32-.002-2.61 0-5.219 0-7.827zM21.52 29.42c0 2.594.002 5.188 0 7.782 0 .602-.033.622-.571.34-4.19-2.205-8.378-4.412-12.569-6.613-.567-.298-.839-.744-.839-1.382.003-4.976.002-9.953.003-14.929 0-.505.05-.534.518-.297 1.251.633 2.496 1.278 3.752 1.899.304.15.399.347.396.673-.012 2.111-.007 4.222-.005 6.333.001.735.244.961.943.763.62-.176 1.075-.042 1.469.46.222.284.496.527.753.781.175.174.368.33.64.216.285-.12.392-.355.39-.653l.002-1.312c0-1.463-.002-2.926.001-4.389.001-.49.045-.516.477-.299 1.401.705 2.795 1.422 4.204 2.11.338.164.445.374.443.735-.012 2.595-.006 5.189-.006 7.783z"/><path d="M42.76 22.174c0-10.13-6.983-18.767-16.774-20.548C17.548.092 10.617 2.892 5.271 9.598c-.084.106-.158.221-.242.327-.282.348-.617.429-.898.22-.274-.205-.3-.553-.046-.927.406-.6.864-1.162 1.345-1.703C9.127 3.375 13.727.892 19.224.18c9.208-1.19 18.13 3.555 22.36 11.835 1.31 2.565 2.07 5.292 2.317 8.17.754 8.833-3.94 17.418-12.093 21.501a21.74 21.74 0 0 1-8.277 2.255c-4.189.297-8.12-.57-11.834-2.494-.12-.062-.241-.124-.355-.199-.35-.228-.457-.549-.269-.841.209-.324.505-.356.83-.192.698.355 1.393.718 2.121 1.015 3.126 1.276 6.37 1.791 9.737 1.487 5.185-.467 9.602-2.57 13.213-6.309 3.136-3.247 4.984-7.14 5.61-11.612.127-.926.196-1.855.176-2.623z"/><path d="M21.994 20.214c-.164-.064-.324-.111-.47-.185-1.372-.693-2.742-1.388-4.112-2.086-.117-.06-.298-.096-.3-.244 0-.147.182-.183.299-.242 4.381-2.221 8.765-4.438 13.145-6.664.273-.139.495-.13.76.01 1.383.738 2.773 1.461 4.16 2.192.103.054.252.082.26.223.007.15-.148.172-.249.224-4.342 2.2-8.683 4.399-13.027 6.595-.145.075-.306.117-.466.177zM21.999 6.053c.216.005.415.073.603.17 1.282.671 2.564 1.344 3.843 2.018.09.047.23.08.229.196-.003.187-.195.209-.32.273-3.575 1.811-7.154 3.62-10.733 5.428-.847.428-1.7.847-2.542 1.285a.664.664 0 0 1-.677 0c-1.285-.664-2.578-1.314-3.867-1.971-.104-.053-.261-.08-.268-.214-.009-.165.17-.191.283-.25 4.24-2.235 8.483-4.467 12.725-6.7.228-.12.46-.226.724-.235zM4.275 11.592c-.823-.007-1.471-.532-1.611-1.292a93.699 93.699 0 0 1-.447-2.718c-.064-.412.156-.74.512-.767.41-.03.606.229.669.591.138.802.258 1.605.386 2.408.08.501.243.625.731.546.773-.126 1.545-.256 2.317-.385.485-.081.813.094.88.47.061.353-.19.627-.658.703-.951.155-1.903.304-2.779.444zM7.792 37.445c.015.491-.466.809-.846.551-.603-.406-1.063-.976-1.501-1.55-.166-.217-.082-.466.105-.658.192-.197.462-.266.659-.105a9.29 9.29 0 0 1 1.535 1.58c.041.055.039.143.048.182zM.029 23.369c0-.135-.016-.273.004-.406.042-.31.243-.486.543-.512.29-.024.513.136.57.412.14.663.162 1.341.18 2.016.009.304-.207.508-.512.534-.303.027-.546-.13-.6-.434-.096-.531-.145-1.07-.215-1.607l.03-.003zM5.4 34.8a.602.602 0 0 1-.38.52c-.235.1-.465.054-.62-.133a9.613 9.613 0 0 1-1.14-1.68c-.14-.266-.039-.503.185-.68.212-.17.484-.208.662-.014.511.554.91 1.194 1.273 1.853.021.038.014.09.02.134zM1.1 26.048c.271.011.475.17.557.46.158.563.308 1.129.448 1.696.086.348-.071.593-.396.706-.322.112-.582-.032-.698-.327a9.241 9.241 0 0 1-.509-1.908c-.055-.335.234-.62.599-.627zM8.533 38.101c.32-.01 1.97 1.21 2.044 1.497.063.238.01.45-.187.607-.195.156-.426.182-.634.06a10.515 10.515 0 0 1-1.592-1.175c-.18-.16-.223-.391-.128-.623a.585.585 0 0 1 .497-.366zM2.156 29.49c.25.01.428.137.53.357.257.544.513 1.088.75 1.64.145.336.006.595-.301.747-.308.152-.576.035-.733-.243-.311-.549-.587-1.12-.793-1.717-.14-.408.142-.79.547-.785z"/></g><defs><clipPath id="a"><path fill="#fff" d="M0 0h43.98v44H0z"/></clipPath></defs></svg>