<svg width="17" height="19" viewBox="0 0 17 19" fill="none" xmlns="http://www.w3.org/2000/svg">
<g clip-path="url(#clip0_16_595)">
<path d="M8.50377 5.23245C6.09038 5.23245 4.14373 7.13616 4.14373 9.49631C4.14373 11.8565 6.09038 13.7602 8.50377 13.7602C10.9172 13.7602 12.8638 11.8565 12.8638 9.49631C12.8638 7.13616 10.9172 5.23245 8.50377 5.23245ZM8.50377 12.2684C6.94417 12.2684 5.66917 11.0252 5.66917 9.49631C5.66917 7.96741 6.94038 6.72424 8.50377 6.72424C10.0672 6.72424 11.3384 7.96741 11.3384 9.49631C11.3384 11.0252 10.0634 12.2684 8.50377 12.2684ZM14.0591 5.05803C14.0591 5.61096 13.6038 6.05256 13.0422 6.05256C12.4768 6.05256 12.0252 5.60725 12.0252 5.05803C12.0252 4.50881 12.4806 4.0635 13.0422 4.0635C13.6038 4.0635 14.0591 4.50881 14.0591 5.05803ZM16.9469 6.06741C16.8823 4.73518 16.5712 3.5551 15.5732 2.58284C14.579 1.61057 13.3723 1.30627 12.01 1.23948C10.606 1.16155 6.39774 1.16155 4.99373 1.23948C3.63525 1.30256 2.42855 1.60686 1.43056 2.57913C0.432567 3.55139 0.125201 4.73147 0.056897 6.0637C-0.0227905 7.43674 -0.0227905 11.5522 0.056897 12.9252C0.121406 14.2574 0.432567 15.4375 1.43056 16.4098C2.42855 17.3821 3.63145 17.6864 4.99373 17.7531C6.39774 17.8311 10.606 17.8311 12.01 17.7531C13.3723 17.6901 14.579 17.3858 15.5732 16.4098C16.5674 15.4375 16.8785 14.2574 16.9469 12.9252C17.0265 11.5522 17.0265 7.44045 16.9469 6.06741ZM15.133 14.3985C14.837 15.1258 14.264 15.6862 13.5165 15.9793C12.3971 16.4135 9.74082 16.3133 8.50377 16.3133C7.26672 16.3133 4.60667 16.4098 3.49105 15.9793C2.7473 15.6899 2.17431 15.1295 1.87453 14.3985C1.43056 13.3037 1.53301 10.7061 1.53301 9.49631C1.53301 8.28655 1.43435 5.68518 1.87453 4.59417C2.17051 3.86682 2.7435 3.30647 3.49105 3.01331C4.61047 2.57913 7.26672 2.67932 8.50377 2.67932C9.74082 2.67932 12.4009 2.58284 13.5165 3.01331C14.2602 3.30276 14.8332 3.86311 15.133 4.59417C15.577 5.68889 15.4745 8.28655 15.4745 9.49631C15.4745 10.7061 15.577 13.3074 15.133 14.3985Z" fill="#01244E"/>
</g>
<defs>
<clipPath id="clip0_16_595">
<rect width="17" height="19" fill="white"/>
</clipPath>
</defs>
</svg>
