<svg width="29" height="31" fill="none" xmlns="http://www.w3.org/2000/svg"><g clip-path="url(#a)" fill="#fff"><path d="M22.79 12.63c.014.502-.188.91-.537 1.264-1.989 2.022-3.976 4.047-5.962 6.072-.39.4-.774.806-1.17 1.2-.755.753-1.736.753-2.486-.005-1.277-1.292-2.55-2.587-3.82-3.885-.738-.753-.738-1.747-.011-2.502.149-.155.301-.307.453-.459.822-.825 1.79-.828 2.607-.008.447.449.891.902 1.336 1.352.619.626.742.626 1.35.01 1.553-1.577 3.104-3.157 4.66-4.732.834-.847 1.75-.844 2.59 0 .182.183.366.363.542.552.302.327.445.7.448 1.14zm-8.895 7.961c.238.026.389-.15.548-.312l6.962-7.084c.038-.038.077-.075.111-.116.25-.301.248-.574-.014-.864-.137-.151-.286-.291-.426-.44-.445-.472-.689-.478-1.15-.008-1.588 1.618-3.172 3.242-4.764 4.857-.784.795-1.778.79-2.564 0-.448-.449-.892-.901-1.338-1.352-.636-.645-.757-.643-1.403.01-.09.093-.183.182-.27.277-.287.317-.3.61-.007.911 1.283 1.316 2.575 2.623 3.862 3.936a.549.549 0 0 0 .453.185z"/><path d="M28.995 10.472c.006 3.653-.567 6.851-1.89 9.902-.22.504-.486.677-.835.535-.348-.142-.407-.457-.186-.96.88-2.013 1.41-4.116 1.649-6.296a27.205 27.205 0 0 0-.082-6.483c-.058-.445-.168-.564-.654-.652a28.962 28.962 0 0 1-8.609-3.02 29.266 29.266 0 0 1-3.405-2.152c-.44-.322-.524-.322-.966.001A30.09 30.09 0 0 1 11.12 3.22c-.152.086-.306.162-.488.136-.257-.036-.407-.196-.457-.436-.056-.264.071-.455.293-.59.614-.377 1.233-.746 1.84-1.135.379-.243.743-.512 1.11-.777.75-.543 1.376-.565 2.132-.013 2.089 1.523 4.33 2.762 6.75 3.675a27.21 27.21 0 0 0 4.937 1.36c.983.172 1.416.683 1.547 1.842.132 1.173.239 2.348.21 3.19z"/><path d="M7.724 11.4c-.237-.01-.416-.168-.48-.455-.106-.47-.2-.944-.314-1.413a7.672 7.672 0 0 0-.23-.737c-.269-.761-.8-1.253-1.559-1.518-.591-.206-1.2-.335-1.813-.454-.084-.016-.168-.036-.252-.054-.3-.064-.482-.236-.477-.555.004-.302.183-.467.468-.53.484-.106.966-.216 1.45-.315 1.339-.272 2.14-1.073 2.41-2.409.06-.295.132-.586.197-.879.041-.188.076-.379.12-.567.064-.284.232-.459.536-.461.303-.003.479.166.544.45.108.472.202.945.314 1.415.054.23.13.454.207.677.27.782.797 1.306 1.583 1.58.592.205 1.2.333 1.813.453.095.019.19.037.283.061.284.073.45.247.446.55-.005.287-.17.459-.439.522-.47.11-.945.202-1.417.313-.22.052-.433.127-.648.195-.832.263-1.362.822-1.644 1.64-.226.653-.34 1.33-.49 2-.08.333-.261.49-.608.491zM5.579 6.247c1.064.396 1.786 1.125 2.205 2.231.418-1.12 1.155-1.834 2.253-2.258-1.12-.414-1.833-1.15-2.251-2.218-.582 1.193-.582 1.193-2.207 2.245zM23.822 29.963c-.308-.009-.493-.162-.558-.449-.11-.48-.208-.965-.32-1.445a5.454 5.454 0 0 0-.312-.912c-.27-.631-.741-1.04-1.374-1.282-.616-.235-1.258-.366-1.903-.491-.105-.02-.212-.038-.315-.067-.267-.077-.425-.247-.424-.534.001-.288.159-.465.43-.528a61.155 61.155 0 0 1 1.512-.33c1.323-.277 2.116-1.076 2.384-2.396.062-.306.136-.608.203-.911.041-.19.075-.38.121-.567.067-.268.235-.432.523-.438.303-.005.484.16.55.444.143.617.256 1.239.432 1.849.286.996.912 1.623 1.909 1.91.518.149 1.041.265 1.568.371.105.021.212.039.315.068.267.076.426.247.424.534-.002.287-.16.465-.43.53-.48.114-.968.202-1.447.322-.291.073-.578.17-.858.28-.66.255-1.097.732-1.352 1.388-.27.695-.396 1.425-.547 2.15-.063.296-.224.478-.531.504zm-2.277-5.178c1.113.418 1.84 1.144 2.258 2.253.417-1.119 1.154-1.835 2.25-2.258-1.115-.417-1.832-1.15-2.258-2.245-.418 1.118-1.146 1.83-2.25 2.25zM3.109 10.57c.03-.437-.05-.944.06-1.443.025-.114.056-.231.107-.336.123-.256.394-.382.642-.3.282.094.418.298.39.593-.323 3.408.196 6.682 1.674 9.77 1.72 3.597 4.533 6.014 8.272 7.38a.682.682 0 0 0 .5-.005 19.439 19.439 0 0 0 1.717-.738c.374-.183.686-.114.84.174.165.31.038.61-.348.807-.605.307-1.227.572-1.865.801a1.694 1.694 0 0 1-1.197-.001c-4.356-1.589-7.472-4.49-9.288-8.755-.849-1.993-1.286-4.086-1.445-6.243a27.642 27.642 0 0 1-.06-1.704zM1.325 7.37c-.146.935-.177 1.89-.22 2.843-.045 1.042.02 2.082.12 3.117.207 2.136.686 4.212 1.508 6.202a17.93 17.93 0 0 0 1.28 2.526c.056.092.116.182.164.277.155.309.089.606-.167.766-.272.17-.577.097-.776-.21a18.073 18.073 0 0 1-1.497-2.885c-.866-2.087-1.379-4.262-1.6-6.508A27.792 27.792 0 0 1 .21 7.333c.047-.373.289-.618.593-.6.303.02.54.303.522.638z"/><path d="M14.505 31c-.694-.065-1.334-.327-1.976-.568a18.982 18.982 0 0 1-5.744-3.403c-.335-.288-.394-.592-.165-.863.213-.251.56-.244.886.032a18.335 18.335 0 0 0 6.637 3.621c.25.076.476.072.722-.004a18.554 18.554 0 0 0 5.127-2.467c.362-.232.688-.2.876.088.185.282.094.572-.253.816a19.317 19.317 0 0 1-5.476 2.628c-.206.063-.412.125-.634.12zM25.882 10.672c.037 2.34-.37 4.61-1.094 6.828-.027.082-.051.165-.085.244-.133.317-.41.467-.69.375-.305-.1-.449-.383-.35-.724.146-.516.316-1.025.456-1.543.492-1.813.702-3.663.686-5.537-.004-.491.05-1-.33-1.432-.177-.202-.09-.478.126-.66.232-.196.483-.174.706.01.378.313.557.732.572 1.214.014.41.003.818.003 1.225zM14.485 3.629c.358-.022.653.102.929.278a31.392 31.392 0 0 0 4.32 2.298c.406.18.543.5.365.818-.15.27-.432.347-.786.196a29.91 29.91 0 0 1-3.67-1.875c-.211-.127-.425-.253-.629-.39-.248-.168-.49-.27-.81-.194a.51.51 0 0 1-.615-.388c-.067-.27.071-.53.348-.647.181-.076.37-.115.548-.096zM22.627 8.435c-.358-.094-.753-.17-1.086-.392-.217-.143-.27-.38-.158-.628.108-.242.308-.372.567-.323.336.063.666.171.97.328.24.122.313.349.251.602-.062.261-.259.378-.544.413zM5.503 25.54a.514.514 0 0 1-.328-.116 3.059 3.059 0 0 1-.637-.758c-.136-.24-.053-.46.14-.636.187-.172.416-.202.62-.056.3.213.54.497.704.821.17.335-.121.744-.499.744z"/></g><defs><clipPath id="a"><path fill="#fff" d="M0 0h29v31H0z"/></clipPath></defs></svg>